<?xml version="1.0" standalone="no"?>
<!DOCTYPE svg PUBLIC "-//W3C//DTD SVG 1.1//EN" "http://www.w3.org/Graphics/SVG/1.1/DTD/svg11.dtd" >
<svg>
<metadata>
Created by FontForge 20090914 at Fri Mar 23 13:15:05 2018
 By www-data
Copyright (c) 1991 Adobe Systems Incorporated.  All Rights Reserved.Kabel is a trademark of Linotype-Hell AG and/or its subsidiaries.
</metadata>
<defs>
<font id="Kabel-Book" horiz-adv-x="480" >
  <font-face 
    font-family="Kabel-Book"
    font-weight="400"
    font-stretch="normal"
    units-per-em="1000"
    panose-1="2 11 5 0 0 0 0 0 0 0"
    ascent="800"
    descent="-200"
    x-height="376"
    cap-height="726"
    bbox="-51.998 -250 1079 935"
    underline-thickness="50"
    underline-position="-50"
    unicode-range="U+0020-U+2122"
  />
<missing-glyph horiz-adv-x="502" 
d="M-1 0h500v500h-500v-500zM9 10v480h480v-480h-480z" />
    <glyph glyph-name=".notdef" horiz-adv-x="502" 
d="M-1 0h500v500h-500v-500zM9 10v480h480v-480h-480z" />
    <glyph glyph-name="space" unicode=" " horiz-adv-x="240" 
 />
    <glyph glyph-name="exclam" unicode="!" horiz-adv-x="258" 
d="M97 156l64 12v558l-64 -12v-558zM71 40l58 -58l58 58l-58 58z" />
    <glyph glyph-name="quotedbl" unicode="&#x22;" horiz-adv-x="296" 
d="M48 472h50v248h-50v-248zM198 472h50v248h-50v-248z" />
    <glyph glyph-name="numbersign" unicode="#" 
d="M185 388h130l-20 -138h-130zM84 0h46l29 204h130l-29 -204h46l29 204h110v46h-104l20 138h110v46h-104l29 204h-46l-29 -204h-130l29 204h-46l-29 -204h-110v-46h104l-20 -138h-110v-46h104z" />
    <glyph glyph-name="dollar" unicode="$" 
d="M218 417c-31.333 17.333 -53.333 36.999 -66 58.999s-19 45 -19 69c0 26.667 7.83301 51.334 23.5 74.001s36.167 38 61.5 46v-248zM274 309.999c32 -17.333 53.999 -35.168 65.999 -53.501s18 -39.5 18 -63.5c0 -28 -7.66699 -53.167 -23 -75.5
s-35.666 -39.166 -60.999 -50.499v243zM217.999 -59.0029l56 -0.00292969v54c48 12.667 86 38.334 114 77.001s42 79.667 42 123c0 44.667 -13.5 83.334 -40.5 116.001s-65.5 59 -115.5 79v280c19.333 -3.33301 37.166 -9.66602 53.499 -18.999s32.833 -23.333 49.5 -42
l38 61c-24.667 22.667 -48 39.334 -70 50.001s-45.667 16.667 -71 18v51h-56v-56c-45.333 -8.66699 -82.833 -30.667 -112.5 -66s-44.5 -78.333 -44.5 -129c0 -40.667 11.833 -77.834 35.5 -111.501s64.167 -63.167 121.5 -88.5v-278
c-47.333 4.66699 -91.666 35 -132.999 91l-35 -60c46.667 -64 102.667 -97 168 -99v-51z" />
    <glyph glyph-name="percent" unicode="%" horiz-adv-x="630" 
d="M75 479c0 41.333 6.5 71.833 19.5 91.5s30.5 29.5 52.5 29.5s39.5 -9.83301 52.5 -29.5s19.5 -50.167 19.5 -91.5s-6.5 -71.833 -19.5 -91.5s-30.5 -29.5 -52.5 -29.5s-39.5 9.83301 -52.5 29.5s-19.5 50.167 -19.5 91.5zM155 -8l371 654h-50l-371 -654h50zM411 159
c0 41.333 6.5 71.833 19.5 91.5s30.5 29.5 52.5 29.5s39.5 -9.83301 52.5 -29.5s19.5 -50.167 19.5 -91.5s-6.5 -71.833 -19.5 -91.5s-30.5 -29.5 -52.5 -29.5s-39.5 9.83301 -52.5 29.5s-19.5 50.167 -19.5 91.5zM19 479c0 -56.667 12 -98.667 36 -126s54.667 -41 92 -41
s68 13.667 92 41s36 69.333 36 126s-12 98.667 -36 126s-54.667 41 -92 41s-68 -13.667 -92 -41s-36 -69.333 -36 -126zM355 159c0 -56.667 12 -98.667 36 -126s54.667 -41 92 -41s68 13.667 92 41s36 69.333 36 126s-12 98.667 -36 126s-54.667 41 -92 41
s-68 -13.667 -92 -41s-36 -69.333 -36 -126z" />
    <glyph glyph-name="ampersand" unicode="&#x26;" horiz-adv-x="500" 
d="M245 270c42.667 20.667 75.168 43.498 97.501 68.498s33.5 53.5 33.5 85.5c0 39.333 -14.167 72 -42.5 98s-62.166 39 -101.499 39c-42 0 -77 -13.333 -105 -40s-42 -57.667 -42 -93c0 -21.333 4.83301 -42.166 14.5 -62.499s26.5 -45.166 50.5 -74.499l-50 -26
c-26.667 -13.333 -47.334 -32 -62.001 -56s-22 -49 -22 -75c0 -43.333 13.667 -78.5 41 -105.5s59 -40.5 95 -40.5c30.667 0 58.667 7.5 84 22.5s53.666 41.833 84.999 80.5l98 -112l44 41l-106 121l134 190l-50 35l-123 -179zM279.001 138.998
c-24.667 -32 -45.167 -54.498 -61.5 -67.498s-33.5 -19.5 -51.5 -19.5c-22.667 0 -42 7 -58 21s-24 31.333 -24 52c0 21.333 8.33301 41.166 25 59.499s44 36.166 82 53.499zM153.001 427c0 21.333 7.33301 39.667 22 55s33.667 23 57 23c21.333 0 39.333 -7 54 -21
s22 -32.667 22 -56c0 -22.667 -8.66699 -43 -26 -61s-42 -34 -74 -48c-20.667 27.333 -35 49.333 -43 66s-12 30.667 -12 42z" />
    <glyph glyph-name="quotesingle" unicode="'" horiz-adv-x="168" 
d="M59 472h50v248h-50v-248z" />
    <glyph glyph-name="parenleft" unicode="(" horiz-adv-x="333" 
d="M314 736c-42 -26 -78.667 -56.6699 -110 -92.0029s-57 -73 -77 -113s-34.667 -80 -44 -120s-14 -78.333 -14 -115c0 -51.333 6.83301 -100.166 20.5 -146.499s32 -88.333 55 -126s48.667 -70.667 77 -99s57.5 -51.166 87.5 -68.499l14 60
c-20 12.667 -40.667 30.334 -62 53.001s-41.5 50.334 -60.5 83.001s-34.333 69.667 -46 111s-17.5 85.666 -17.5 132.999c0 80.667 18 154.5 54 221.5s84 120.167 144 159.5z" />
    <glyph glyph-name="parenright" unicode=")" horiz-adv-x="333" 
d="M19 -144c42 26 78.667 56.6699 110 92.0029s57 73 77 113s34.667 80 44 120s14 78.333 14 115c0 51.333 -6.83301 100.166 -20.5 146.499s-32 88.333 -55 126s-48.667 70.667 -77 99s-57.5 51.166 -87.5 68.499l-14 -60c20 -12.667 40.667 -30.334 62 -53.001
s41.5 -50.334 60.5 -83.001s34.333 -69.667 46 -111s17.5 -85.666 17.5 -132.999c0 -80.667 -18 -154.5 -54 -221.5s-84 -120.167 -144 -159.5z" />
    <glyph glyph-name="asterisk" unicode="*" horiz-adv-x="315" 
d="M21 528l26 -42l92 56l-8 -113l57 5l-6 111l89 -65l21 48l-93 49l95 50l-22 45l-90 -59l6 113l-57 -6l8 -106l-93 64l-18 -48l95 -51z" />
    <glyph glyph-name="plus" unicode="+" horiz-adv-x="600" 
d="M275 0h50v228h228v50h-228v228h-50v-228h-228v-50h228v-228z" />
    <glyph glyph-name="comma" unicode="," horiz-adv-x="240" 
d="M95 174l-95 -248h64l106 256z" />
    <glyph glyph-name="hyphen" unicode="-" horiz-adv-x="204" 
d="M20 164h164v64h-164v-64z" />
    <glyph glyph-name="period" unicode="." horiz-adv-x="240" 
d="M62 50l58 -58l58 58l-58 58z" />
    <glyph glyph-name="slash" unicode="/" horiz-adv-x="315" 
d="M74 -18l227 756h-60l-227 -756h60z" />
    <glyph glyph-name="zero" unicode="0" 
d="M83 319c0 84.667 14.5 150.334 43.5 197.001s66.833 70 113.5 70s84.5 -23.333 113.5 -70s43.5 -112.334 43.5 -197.001c0 -83.333 -14.667 -148.666 -44 -195.999s-67 -71 -113 -71s-83.667 23.667 -113 71s-44 112.666 -44 195.999zM19 319
c0 -54.667 5.66699 -102.834 17 -144.501s27.333 -76 48 -103s44.167 -47 70.5 -60s54.833 -19.5 85.5 -19.5s59.167 6.5 85.5 19.5s49.833 33 70.5 60s36.667 61.333 48 103s17 89.834 17 144.501c0 46.667 -5 90 -15 130s-24.667 74.833 -44 104.5
s-42.833 52.5 -70.5 68.5s-58.167 24 -91.5 24s-63.833 -8 -91.5 -24s-51.167 -38.833 -70.5 -68.5s-34 -64.5 -44 -104.5s-15 -83.333 -15 -130z" />
    <glyph glyph-name="one" unicode="1" horiz-adv-x="259" 
d="M104 -6l64 12v650l-139 -91v-72l75 49v-548z" />
    <glyph glyph-name="two" unicode="2" 
d="M419 0l17 59.998h-297c56.667 49.333 102.834 91.333 138.501 126s65.167 66.667 88.5 96s40.666 57.5 51.999 84.5s17 54.5 17 82.5c0 25.333 -4.5 49.833 -13.5 73.5s-22 44.834 -39 63.501s-37.5 33.334 -61.5 44.001s-50.333 16 -79 16
c-29.333 0 -56.333 -5.16699 -81 -15.5s-45.5 -24.5 -62.5 -42.5s-30.167 -38.833 -39.5 -62.5s-14 -48.5 -14 -74.5c0 -53.333 15.333 -96.333 46 -129s70 -54 118 -64l-4 61c-33.333 12.667 -57.666 30.167 -72.999 52.5s-23 48.833 -23 79.5
c0 40.667 12.167 73.334 36.5 98.001s56.5 37 96.5 37c37.333 0 68.166 -12.5 92.499 -37.5s36.5 -59.167 36.5 -102.5c0 -13.333 -1.83301 -26.5 -5.5 -39.5s-10 -27.333 -19 -43s-21.833 -33.334 -38.5 -53.001s-38 -42.5 -64 -68.5l-244 -242h419z" />
    <glyph glyph-name="three" unicode="3" 
d="M40 78c22.667 -26.667 48.668 -47.668 78.001 -63.001s61.333 -23 96 -23c29.333 0 55.666 5.16699 78.999 15.5s43.166 24.166 59.499 41.499s28.5 36.833 36.5 58.5s12 43.834 12 66.501c0 39.333 -11.5 72.5 -34.5 99.5s-50.167 43.5 -81.5 49.5v2
c38 12.667 65.667 33.167 83 61.5s26 57.5 26 87.5c0 23.333 -4.33301 45.5 -13 66.5s-20.667 39.167 -36 54.5c-34 34 -76.667 51 -128 51c-36 0 -66.833 -7 -92.5 -21s-51.167 -34 -76.5 -60l23 -54c24.667 26.667 48.334 45.834 71.001 57.501s47.667 17.5 75 17.5
c32.667 0 59.667 -9.83301 81 -29.5s32 -47.167 32 -82.5c0 -36 -13.5 -65 -40.5 -87s-59.833 -33 -98.5 -33h-39v-64h43c45.333 0 80.333 -11.333 105 -34s37 -52.667 37 -90c0 -30 -12.5 -56.5 -37.5 -79.5s-54.5 -34.5 -88.5 -34.5c-25.333 0 -48.5 6.5 -69.5 19.5
s-38.5 28.833 -52.5 47.5z" />
    <glyph glyph-name="four" unicode="4" 
d="M278 216h-161l159 255h2v-255zM278 -6l64 12v154h95v56h-95v440l-333 -496h269v-166z" />
    <glyph glyph-name="five" unicode="5" 
d="M54 65c1.33301 -1.33301 2.33594 -2.00098 3.00293 -2.00098c21.333 -22.667 45.166 -40.167 71.499 -52.5s52.833 -18.5 79.5 -18.5c28 0 54.333 5.5 79 16.5s46 26 64 45s32 41.167 42 66.5s15 52 15 80s-4.83301 54.167 -14.5 78.5s-23.334 45.833 -41.001 64.5
s-38.834 33.167 -63.501 43.5s-51.667 15.5 -81 15.5c-20 0 -37 -2 -51 -6v182h216l11 60h-291v-323c38 18 74 27 108 27c37.333 0 70.5 -13.167 99.5 -39.5s43.5 -61.166 43.5 -104.499c0 -40 -12.667 -74.333 -38 -103s-56.333 -43 -93 -43c-41.333 0 -79 18 -113 54z" />
    <glyph glyph-name="six" unicode="6" 
d="M399 216c-0.666992 -46 -16 -84.833 -46 -116.5s-67.333 -47.5 -112 -47.5c-45.333 0 -83.166 15.833 -113.499 47.5s-45.833 70.5 -46.5 116.5c0 48.667 15.167 88.167 45.5 118.5s68.5 45.5 114.5 45.5c22 0 42.667 -4.33301 62 -13s36.166 -20.5 50.499 -35.5
s25.5 -32.5 33.5 -52.5s12 -41 12 -63zM350 656c-61.333 -40.667 -113.499 -80.333 -156.499 -119s-77.5 -75.834 -103.5 -111.501s-44.667 -70.167 -56 -103.5s-17 -66.666 -17 -99.999c0 -32 5.5 -62 16.5 -90s26.667 -52.5 47 -73.5s44.166 -37.333 71.499 -49
s57 -17.5 89 -17.5c30 0 58.667 5.83301 86 17.5s51.166 28 71.499 49s36.166 45 47.499 72s17 55.5 17 85.5c0 30.667 -5.16699 59.667 -15.5 87s-25 51.333 -44 72s-41.667 36.667 -68 48s-55.166 17 -86.499 17c-30 0 -57 -6.66699 -81 -20l-2 2
c26 30 56.333 59.333 91 88s82.334 62.667 143.001 102z" />
    <glyph glyph-name="seven" unicode="7" 
d="M28 638v-68h305l-222 -576l75 12l238 632h-396z" />
    <glyph glyph-name="eight" unicode="8" 
d="M53 165c0 -22.667 4.66504 -44.667 13.998 -66s22.333 -39.833 39 -55.5s36.5 -28.167 59.5 -37.5s47.833 -14 74.5 -14s51.5 4.66699 74.5 14s43 22 60 38s30 34.5 39 55.5s13.5 42.833 13.5 65.5c0 36 -10.667 68.667 -32 98s-47.666 47.666 -78.999 54.999v2
c34 14.667 60 35.167 78 61.5s27 56.5 27 90.5c0 50 -17.167 91.5 -51.5 124.5s-77.5 49.5 -129.5 49.5s-95.167 -16.5 -129.5 -49.5s-51.5 -74.5 -51.5 -124.5c0 -34 9 -64.167 27 -90.5s44 -46.833 78 -61.5v-2c-31.333 -7.33301 -57.666 -25.666 -78.999 -54.999
s-32 -62 -32 -98zM116.998 170c0 31.333 11.667 58.666 35 81.999s52.666 35 87.999 35s64.666 -11.667 87.999 -35s35 -50.666 35 -81.999s-11.667 -58.833 -35 -82.5s-52.666 -35.5 -87.999 -35.5s-64.666 11.667 -87.999 35s-35 51 -35 83zM122.998 470
c0 30 10.8311 56.833 32.498 80.5s49.834 35.5 84.501 35.5s62.834 -11.833 84.501 -35.5s32.5 -50.5 32.5 -80.5s-11 -56.667 -33 -80s-50 -35 -84 -35s-62 11.667 -84 35s-33 50 -33 80z" />
    <glyph glyph-name="nine" unicode="9" 
d="M81 422c0.666992 46 16 84.833 46 116.5s67.333 47.5 112 47.5c45.333 0 83.166 -15.833 113.499 -47.5s45.833 -70.5 46.5 -116.5c0 -48.667 -15.167 -88.167 -45.5 -118.5s-68.5 -45.5 -114.5 -45.5c-22 0 -42.667 4.33301 -62 13s-36.166 20.667 -50.499 36
s-25.5 32.833 -33.5 52.5s-12 40.5 -12 62.5zM130 -18c61.333 40.667 113.499 80.332 156.499 118.999s77.5 75.834 103.5 111.501s44.667 70.167 56 103.5s17 66.666 17 99.999c0 32 -5.5 62.167 -16.5 90.5s-26.667 52.833 -47 73.5s-44.166 36.834 -71.499 48.501
s-57 17.5 -89 17.5c-30 0 -58.667 -5.83301 -86 -17.5s-51.166 -28 -71.499 -49s-36.166 -45 -47.499 -72s-17 -55.5 -17 -85.5c0 -30.667 5.16699 -59.667 15.5 -87s25 -51.333 44 -72s41.667 -36.667 68 -48s55.166 -17 86.499 -17c30 0 57 6.66699 81 20l2 -2
c-26 -30 -56.333 -59.333 -91 -88s-82.334 -62.667 -143.001 -102z" />
    <glyph glyph-name="colon" unicode=":" horiz-adv-x="240" 
d="M62 318l58 -58l58 58l-58 58zM62 50l58 -58l58 58l-58 58z" />
    <glyph glyph-name="semicolon" unicode=";" horiz-adv-x="240" 
d="M95 174l-95 -248h64l106 256zM76 318l58 -58l58 58l-58 58z" />
    <glyph glyph-name="less" unicode="&#x3c;" horiz-adv-x="600" 
d="M47 225l506 -233v56l-446 205l446 205v56l-506 -233v-56z" />
    <glyph glyph-name="equal" unicode="=" horiz-adv-x="600" 
d="M47 325h506v50h-506v-50zM47 131h506v50h-506v-50z" />
    <glyph glyph-name="greater" unicode="&#x3e;" horiz-adv-x="600" 
d="M553 281l-506 233v-56l446 -205l-446 -205v-56l506 233v56z" />
    <glyph glyph-name="question" unicode="?" horiz-adv-x="444" 
d="M86 576c8 26 23.166 49.501 45.499 70.501s49.5 31.5 81.5 31.5c34.667 0 65.5 -12.667 92.5 -38s40.5 -58.333 40.5 -99c0 -25.333 -6.66699 -47 -20 -65s-33.666 -36 -60.999 -54c-18 -11.333 -32.5 -22 -43.5 -32s-19.833 -21.5 -26.5 -34.5s-11.5 -29.333 -14.5 -49
s-4.5 -44.5 -4.5 -74.5v-75l60 12v46c0 26.667 1.16699 48.167 3.5 64.5s6 29.666 11 39.999s12 19.666 21 27.999s21.5 18.166 37.5 29.499c33.333 23.333 58.5 47.833 75.5 73.5s25.5 56.834 25.5 93.501c0 26 -4.83301 50.833 -14.5 74.5s-23.5 44.5 -41.5 62.5
s-39.167 32 -63.5 42s-50.833 15 -79.5 15c-44 0 -82.833 -14.167 -116.5 -42.5s-57.167 -62.166 -70.5 -101.499zM147.999 40.001l58 -58l58 58l-58 58z" />
    <glyph glyph-name="at" unicode="@" horiz-adv-x="800" 
d="M236 289c0 25.333 4.66699 52.167 14 80.5s22.833 55.166 40.5 80.499s38.5 45.666 62.5 60.999s50 23 78 23c56.667 0 85 -33 85 -99c0 -24 -4.83301 -50.5 -14.5 -79.5s-23.167 -56.667 -40.5 -83s-37.666 -47.666 -60.999 -63.999s-48 -24.5 -74 -24.5
c-30.667 0 -53.334 9.33301 -68.001 28s-22 44.334 -22 77.001zM551 498.001l-3.00195 0.00195312c-10 29.333 -25 51 -45 65s-43.333 21 -70 21c-36 0 -69.5 -8.66699 -100.5 -26s-58 -40.666 -81 -69.999s-40.667 -61.833 -53 -97.5s-18.5 -71.167 -18.5 -106.5
c0 -42.667 12.167 -78.334 36.5 -107.001s58.166 -43 101.499 -43c30 0 56.833 6.83301 80.5 20.5s44.834 30.167 63.501 49.5h2c0 -23.333 6.66699 -40.833 20 -52.5s30 -17.5 50 -17.5c27.333 0 55.5 7.66699 84.5 23s55.667 36.666 80 63.999s43.666 58.5 57.999 93.5
s21.5 71.5 21.5 109.5c0 44.667 -9.16699 86.167 -27.5 124.5s-43.833 71.833 -76.5 100.5s-70.834 50.667 -114.501 66s-90.167 23 -139.5 23c-54 0 -105.167 -9.66699 -153.5 -29s-91 -46.333 -128 -81s-65.667 -75.167 -86 -121.5s-30.5 -95.166 -30.5 -146.499
s10 -100 30 -146s48 -86.333 84 -121s78.5 -61.834 127.5 -81.501s101.167 -29.5 156.5 -29.5c70 0 136 16.833 198 50.5s110 78.834 144 135.501h-57c-28 -42 -68.167 -75.833 -120.5 -101.5s-107.166 -38.5 -164.499 -38.5c-48 0 -93.167 8.66699 -135.5 26
s-79.5 41.333 -111.5 72s-56.833 66.167 -74.5 106.5s-26.5 82.833 -26.5 127.5c0 43.333 8.66699 84.833 26 124.5s41.833 75.167 73.5 106.5s68.834 56 111.501 74s88.334 27 137.001 27c40 0 78.5 -6.33301 115.5 -19s70 -30.834 99 -54.501s51.833 -51.834 68.5 -84.501
s25 -68 25 -106c0 -26 -5.16699 -53.667 -15.5 -83s-24.166 -56.5 -41.499 -81.5s-36.833 -45.167 -58.5 -60.5s-43.5 -23 -65.5 -23s-33 9.66699 -33 29c0 13.333 4.33301 32 13 56l105 301h-57z" />
    <glyph glyph-name="A" unicode="A" horiz-adv-x="722" 
d="M716 6l-361 732l-349 -732l73 -12l155 326h247l162 -326zM448 388h-181l86 203z" />
    <glyph glyph-name="B" unicode="B" horiz-adv-x="481" 
d="M129 332l45 0.000976562c28.667 0 55.667 -2.83301 81 -8.5s47.833 -14.167 67.5 -25.5s35.167 -26.333 46.5 -45s17 -40.334 17 -65.001c0 -38 -12.167 -68.167 -36.5 -90.5s-60.5 -33.5 -108.5 -33.5h-112v268zM129 656.001l76.001 -0.000976562
c26 0 49 -1.33301 69 -4s38 -8.16699 54 -16.5s28.667 -20.833 38 -37.5s14 -38 14 -64c0 -41.333 -15.333 -74.666 -46 -99.999s-76.334 -38 -137.001 -38h-68v260zM57.001 0h196c38 0 70.333 5.66699 97 17s48 26.333 64 45s27.333 38.667 34 60s10 42.666 10 63.999
c0 44.667 -12.5 82.334 -37.5 113.001s-59.5 53 -103.5 67v2c38 4.66699 70 22.334 96 53.001s39 68.667 39 114c0 30 -6.16699 57.167 -18.5 81.5s-28.833 44.166 -49.5 59.499c-18 13.333 -40.667 24 -68 32s-61 12 -101 12h-158v-720z" />
    <glyph glyph-name="C" unicode="C" horiz-adv-x="667" 
d="M616 124c-29.333 -23.333 -62.002 -41.499 -98.002 -54.499s-70 -19.5 -102 -19.5c-43.333 0 -83.833 8 -121.5 24s-70.5 38.333 -98.5 67s-49.667 61.834 -65 99.501s-23 77.5 -23 119.5s7.66699 81.833 23 119.5s37 70.834 65 99.501s60.833 51 98.5 67
s78.167 24 121.5 24c36.667 0 72 -6.33301 106 -19s64.333 -31.334 91 -56.001l34 62c-32.667 26.667 -69 46.834 -109 60.501s-80.667 20.5 -122 20.5c-56 0 -107.833 -10.333 -155.5 -31s-88.5 -48.834 -122.5 -84.501s-60.167 -76.167 -78.5 -121.5
s-27.5 -92.333 -27.5 -141s9.16699 -95.667 27.5 -141s44.5 -85.833 78.5 -121.5s74.833 -63.834 122.5 -84.501s99.5 -31 155.5 -31c40.667 0 81.834 7.16699 123.501 21.5s79.834 35.166 114.501 62.499z" />
    <glyph glyph-name="D" unicode="D" horiz-adv-x="537" 
d="M51 0h69.001c57.333 0 110 9.66699 158 29s88.833 46 122.5 80s59.5 72.667 77.5 116s27 88.333 27 135c0 46 -8.16699 90.5 -24.5 133.5s-40.333 81.5 -72 115.5s-71.334 61 -119.001 81s-101.5 30 -161.5 30h-77v-720zM123.001 652l17 0.00195312
c40.667 0 78.834 -7.5 114.501 -22.5s66.5 -35.667 92.5 -62s46.167 -56.833 60.5 -91.5s21.5 -71.334 21.5 -110.001c0 -39.333 -6.33301 -76.833 -19 -112.5s-31.667 -67.334 -57 -95.001s-57.333 -49.5 -96 -65.5s-83.334 -24.333 -134.001 -25v584z" />
    <glyph glyph-name="E" unicode="E" horiz-adv-x="444" 
d="M57 0h351l23 64h-302v268h237v64h-237v260h267l-9 64h-330v-720z" />
    <glyph glyph-name="F" unicode="F" horiz-adv-x="352" 
d="M57 720v-726l72 12v306h191v64h-191v280h230l-8 64h-294z" />
    <glyph glyph-name="G" unicode="G" horiz-adv-x="741" 
d="M443 320h162.001v-209c-24.667 -18.667 -54 -33.5 -88 -44.5s-67.667 -16.5 -101 -16.5c-43.333 0 -83.833 8 -121.5 24s-70.5 38.333 -98.5 67s-49.667 61.834 -65 99.501s-23 77.5 -23 119.5s7.66699 81.833 23 119.5s37 70.834 65 99.501s60.833 51 98.5 67
s78.167 24 121.5 24c34.667 0 70 -6.16699 106 -18.5s65.333 -28.833 88 -49.5l54 44c-76.667 61.333 -159.334 92 -248.001 92c-56 0 -107.833 -10.333 -155.5 -31s-88.5 -48.834 -122.5 -84.501s-60.167 -76.167 -78.5 -121.5s-27.5 -92.333 -27.5 -141
s9.16699 -95.667 27.5 -141s44.5 -85.833 78.5 -121.5s74.833 -63.834 122.5 -84.501s99.5 -31 155.5 -31c95.333 0 182.333 33 261 99v307h-234v-68z" />
    <glyph glyph-name="H" unicode="H" horiz-adv-x="704" 
d="M65 -6l72 12v318h430v-330l72 12v720l-72 -12v-326h-430v338l-72 -12v-720z" />
    <glyph glyph-name="I" unicode="I" horiz-adv-x="186" 
d="M57 -6l72 12v720l-72 -12v-720z" />
    <glyph glyph-name="J" unicode="J" horiz-adv-x="444" 
d="M315 714v-479.998c0 -59.333 -12.667 -104.833 -38 -136.5s-58.333 -47.5 -99 -47.5c-25.333 0 -48.5 6.5 -69.5 19.5s-45.167 37.167 -72.5 72.5l-45 -46c20.667 -34.667 46.834 -62.334 78.501 -83.001s66.5 -31 104.5 -31c63.333 0 114.666 23.167 153.999 69.5
s59 112.166 59 197.499v477z" />
    <glyph glyph-name="K" unicode="K" horiz-adv-x="500" 
d="M57 -6l72 12v340l323 -352l53 47l-298 327l290 313l-51 45l-317 -344v344l-72 -12v-720z" />
    <glyph glyph-name="L" unicode="L" horiz-adv-x="463" 
d="M65 714v-714h359l29 72h-316v654z" />
    <glyph glyph-name="M" unicode="M" horiz-adv-x="870" 
d="M34 6l70 -12l70 514h2l254 -502l266 513h2l70 -525l68 12l-98 732l-302 -584l-299 584z" />
    <glyph glyph-name="N" unicode="N" horiz-adv-x="704" 
d="M579 155l-526 577v-738l72 12v551l526 -575v744l-72 -12v-559z" />
    <glyph glyph-name="O" unicode="O" horiz-adv-x="832" 
d="M108 360c0 42 7.66699 81.833 23 119.5s37 70.834 65 99.501s60.833 51 98.5 67s78.167 24 121.5 24s83.833 -8 121.5 -24s70.5 -38.333 98.5 -67s49.667 -61.834 65 -99.501s23 -77.5 23 -119.5s-7.66699 -81.833 -23 -119.5s-37 -70.834 -65 -99.501
s-60.833 -51 -98.5 -67s-78.167 -24 -121.5 -24s-83.833 8 -121.5 24s-70.5 38.333 -98.5 67s-49.667 61.834 -65 99.501s-23 77.5 -23 119.5zM32 360c0 -48.667 9.16699 -95.667 27.5 -141s44.5 -85.833 78.5 -121.5s74.833 -63.834 122.5 -84.501s99.5 -31 155.5 -31
s107.833 10.333 155.5 31s88.5 48.834 122.5 84.501s60.167 76.167 78.5 121.5s27.5 92.333 27.5 141s-9.16699 95.667 -27.5 141s-44.5 85.833 -78.5 121.5s-74.833 63.834 -122.5 84.501s-99.5 31 -155.5 31s-107.833 -10.333 -155.5 -31s-88.5 -48.834 -122.5 -84.501
s-60.167 -76.167 -78.5 -121.5s-27.5 -92.333 -27.5 -141z" />
    <glyph glyph-name="P" unicode="P" horiz-adv-x="426" 
d="M57 -6l71.999 12.001v220c92 1.33301 163.333 24.666 214 69.999s76 106.333 76 183c0 74 -28.167 132.667 -84.5 176s-133.166 65 -230.499 65h-47v-726zM128.999 652.001c63.333 0 115.5 -15.5 156.5 -46.5s61.5 -75.167 61.5 -132.5
c0 -31.333 -5.66699 -58.333 -17 -81s-26.833 -41.167 -46.5 -55.5s-42.667 -25 -69 -32s-54.833 -10.5 -85.5 -10.5v358z" />
    <glyph glyph-name="Q" unicode="Q" horiz-adv-x="832" 
d="M108 360c0 42 7.66699 81.833 23 119.5s37 70.834 65 99.501s60.833 51 98.5 67s78.167 24 121.5 24s83.833 -8 121.5 -24s70.5 -38.333 98.5 -67s49.667 -61.834 65 -99.501s23 -77.5 23 -119.5s-7.66699 -81.833 -23 -119.5s-37 -70.834 -65 -99.501
s-60.833 -51 -98.5 -67s-78.167 -24 -121.5 -24s-83.833 8 -121.5 24s-70.5 38.333 -98.5 67s-49.667 61.834 -65 99.501s-23 77.5 -23 119.5zM748 -30l35.001 57.001l-102 58c37.333 35.333 66.5 77 87.5 125s31.5 98 31.5 150c0 48.667 -9.16699 95.667 -27.5 141
s-44.5 85.833 -78.5 121.5s-74.833 63.834 -122.5 84.501s-99.5 31 -155.5 31s-107.833 -10.333 -155.5 -31s-88.5 -48.834 -122.5 -84.501s-60.167 -76.167 -78.5 -121.5s-27.5 -92.333 -27.5 -141s9.16699 -95.667 27.5 -141s44.5 -85.833 78.5 -121.5
s74.833 -63.834 122.5 -84.501s99.5 -31 155.5 -31c77.333 0 147.666 20.333 210.999 61z" />
    <glyph glyph-name="R" unicode="R" horiz-adv-x="463" 
d="M129 656h35.001c63.333 0 111.333 -13.5 144 -40.5s49 -64.833 49 -113.5c0 -45.333 -17.333 -84 -52 -116s-83.334 -48 -146.001 -48c-4.66699 0 -10.667 0.333008 -18 1h-12v317zM57.001 -6l72 12.001v286h2l249 -310l70 36l-225 263
c28 3.33301 54.333 11.166 79 23.499s46.5 28 65.5 47s33.667 40.5 44 64.5s15.5 49 15.5 75c0 74 -23.167 130.667 -69.5 170s-117.5 59 -213.5 59h-89v-726z" />
    <glyph glyph-name="S" unicode="S" horiz-adv-x="444" 
d="M397 669c-26.667 24.667 -52.167 42.334 -76.5 53.001s-50.5 16 -78.5 16c-26.667 0 -52 -4.83301 -76 -14.5s-45.333 -23.5 -64 -41.5s-33.167 -39.5 -43.5 -64.5s-15.5 -52.167 -15.5 -81.5c0 -42 11.833 -80.167 35.5 -114.5s64.834 -64.166 123.501 -89.499
c53.333 -22.667 89.666 -45 108.999 -67s29 -48.333 29 -79c0 -37.333 -12.5 -69.333 -37.5 -96s-55.5 -40 -91.5 -40c-26.667 0 -51.834 7.83301 -75.501 23.5s-46.5 38.5 -68.5 68.5l-35 -59c24.667 -34.667 51.167 -60.167 79.5 -76.5s59.833 -24.5 94.5 -24.5
c32 0 60.833 5.83301 86.5 17.5s47.334 27.667 65.001 48s31.167 42.666 40.5 66.999s14 48.833 14 73.5c0 45.333 -13.5 84.666 -40.5 117.999s-65.5 59.666 -115.5 78.999c-52 20.667 -88.5 44.334 -109.5 71.001s-31.5 55.667 -31.5 87c0 33.333 11.167 62.833 33.5 88.5
s50.833 38.5 85.5 38.5c24.667 0 46.667 -4.66699 66 -14s39 -25.333 59 -48z" />
    <glyph glyph-name="T" unicode="T" 
d="M198 648v-654l72 12v642h196l12 72h-464l-12 -72h196z" />
    <glyph glyph-name="U" unicode="U" horiz-adv-x="630" 
d="M54 215c0 -34 6.50098 -65.332 19.501 -93.999s31.167 -53.334 54.5 -74.001s50.666 -36.667 81.999 -48s65 -17 101 -17c86.667 0 153 34.333 199 103l2 -2l-8 -89l72 12v720l-72 -12v-441c0 -72.667 -17.333 -128 -52 -166s-81 -57 -139 -57
c-54.667 0 -99.5 16 -134.5 48s-52.5 74.667 -52.5 128v500l-72 -12v-499z" />
    <glyph glyph-name="V" unicode="V" horiz-adv-x="685" 
d="M346 -30l346 744l-71 12l-277 -604l-280 604l-71 -12z" />
    <glyph glyph-name="W" unicode="W" horiz-adv-x="907" 
d="M305 -30l141 339l142 -339l320 744l-68 12l-250 -590l-107 260l142 318l-72 12l-107 -251l-102 251l-73 -12l140 -326l-103 -252l-240 590l-69 -12z" />
    <glyph glyph-name="X" unicode="X" horiz-adv-x="611" 
d="M300 306l226 -312l81 12l-265 364l229 344l-76 12l-196 -297l-217 297l-78 -12l253 -348l-237 -360l74 -12z" />
    <glyph glyph-name="Y" unicode="Y" horiz-adv-x="519" 
d="M219 274l-139 -268l72 -12l371 720l-73 12l-194 -374l-188 374l-72 -12z" />
    <glyph glyph-name="Z" unicode="Z" horiz-adv-x="574" 
d="M51 720l-23 -68h380l-390 -652h516l22 68h-423l392 652h-474z" />
    <glyph glyph-name="bracketleft" unicode="[" horiz-adv-x="204" 
d="M64 -128h150v56h-90v736h90v56h-150v-848z" />
    <glyph glyph-name="backslash" unicode="\" horiz-adv-x="315" 
d="M301 -18l-227 756h-60l227 -756h60z" />
    <glyph glyph-name="bracketright" unicode="]" horiz-adv-x="204" 
d="M140 720h-150v-56h90v-736h-90v-56h150v848z" />
    <glyph glyph-name="asciicircum" unicode="^" horiz-adv-x="600" 
d="M500 185h56l-231 453h-50l-231 -453h56l200 393z" />
    <glyph glyph-name="underscore" unicode="_" horiz-adv-x="500" 
d="M0 -125h500v50h-500v-50z" />
    <glyph glyph-name="grave" unicode="`" horiz-adv-x="168" 
d="M-40 561l129 -113l51 32l-123 116z" />
    <glyph glyph-name="a" unicode="a" horiz-adv-x="352" 
d="M250 -6l50.0039 12.001v265c0 36.667 -9.33301 65.334 -28 86.001s-50.334 31 -95.001 31c-26 0 -44 -1.66699 -54 -5l-14 -55c21.333 2.66699 39.666 4 54.999 4c50.667 0 76 -20.333 76 -61v-36h-2c-8 9.33301 -19.833 17.166 -35.5 23.499s-31.834 9.5 -48.501 9.5
c-17.333 0 -34 -3.66699 -50 -11s-30.167 -17.5 -42.5 -30.5s-22 -28.167 -29 -45.5s-10.5 -35.333 -10.5 -54c0 -16 3.16699 -32.333 9.5 -49s15.5 -31.834 27.5 -45.501s26.167 -24.5 42.5 -32.5s34.166 -12 53.499 -12c36 0 67.667 15 95 45v-39zM82.0039 128.001
c0 18.667 7 36.667 21 54s33.333 26 58 26s44 -8.66699 58 -26s21 -35.333 21 -54s-7 -36.667 -21 -54s-33.333 -26 -58 -26s-44 8.66699 -58 26s-21 35.333 -21 54z" />
    <glyph glyph-name="b" unicode="b" horiz-adv-x="464" 
d="M32 720l0.000976562 -532.002c0 -25.333 5 -50 15 -74s24.167 -45.5 42.5 -64.5s39.666 -34 63.999 -45s50.5 -16.5 78.5 -16.5s54.333 5.33301 79 16s46 25.334 64 44.001s32 40.167 42 64.5s15 49.5 15 75.5s-4.83301 51.167 -14.5 75.5s-23.334 45.833 -41.001 64.5
s-39 33.334 -64 44.001s-51.833 16 -80.5 16c-51.333 0 -96.666 -21 -135.999 -63v407zM96.001 187.998c0 38.667 13 71.667 39 99s58.333 41 97 41s71 -13.667 97 -41s39 -60.333 39 -99s-13 -71.667 -39 -99s-58.333 -41 -97 -41s-71 13.667 -97 41s-39 60.333 -39 99z
" />
    <glyph glyph-name="c" unicode="c" horiz-adv-x="370" 
d="M336 85c-40 -24.667 -77.998 -37.001 -113.998 -37.001c-38.667 0 -71 13.667 -97 41s-39 60.333 -39 99s13 71.667 39 99s58.333 41 97 41c20 0 39.667 -3 59 -9s37.666 -14.333 54.999 -25l12 59c-21.333 13.333 -42.5 22.5 -63.5 27.5s-41.833 7.5 -62.5 7.5
c-28 0 -54.333 -5.5 -79 -16.5s-46 -25.833 -64 -44.5s-32 -40.167 -42 -64.5s-15 -49.166 -15 -74.499s5 -50 15 -74s24.167 -45.5 42.5 -64.5s39.666 -34 63.999 -45s50.5 -16.5 78.5 -16.5c40 0 82 12 126 36z" />
    <glyph glyph-name="d" unicode="d" horiz-adv-x="464" 
d="M352 -6l64 12v726l-64 -12v-399c-38 44.667 -81.333 67 -130 67c-26 0 -50.5 -5.16699 -73.5 -15.5s-43.333 -24.833 -61 -43.5s-31.334 -40.167 -41.001 -64.5s-14.5 -49.833 -14.5 -76.5s5 -52.167 15 -76.5s23.833 -45.833 41.5 -64.5s38 -33.167 61 -43.5
s47.167 -15.5 72.5 -15.5c22.667 0 45.834 6.33301 69.501 19s43.167 28.667 58.5 48h2v-61zM96 188c0 38 12.333 70.833 37 98.5s54.334 41.5 89.001 41.5s64.334 -13.833 89.001 -41.5s37 -60.5 37 -98.5s-12.333 -70.833 -37 -98.5s-54.334 -41.5 -89.001 -41.5
s-64.334 13.833 -89.001 41.5s-37 60.5 -37 98.5z" />
    <glyph glyph-name="e" unicode="e" horiz-adv-x="407" 
d="M401 281c-16 32 -38.333 57.832 -67 77.499s-62.667 29.5 -102 29.5c-28 0 -54.333 -5.5 -79 -16.5s-46 -25.833 -64 -44.5s-32 -40.167 -42 -64.5s-15 -49.166 -15 -74.499s5 -50 15 -74s24.167 -45.5 42.5 -64.5s39.666 -34 63.999 -45s50.5 -16.5 78.5 -16.5
c40 0 82 12 126 36l-12 61c-40 -24.667 -78 -37 -114 -37c-25.333 0 -49.166 7.33301 -71.499 22s-38.833 33 -49.5 55zM94 178.999c-1.33301 4.66699 -2 11.667 -2 21c0 18.667 4 36 12 52s18.833 30 32.5 42s28.667 21.333 45 28s32.5 10 48.5 10c34 0 61 -11 81 -33z" />
    <glyph glyph-name="f" unicode="f" horiz-adv-x="204" 
d="M52 -6l64 12.001v314h90v56h-90v196c0 32 7.33301 56 22 72s39 27.333 73 34l-5 60c-54 -4.66699 -93.167 -20.834 -117.5 -48.501s-36.5 -67.5 -36.5 -119.5v-576z" />
    <glyph glyph-name="g" unicode="g" horiz-adv-x="370" 
d="M42 -87c19.333 -20.667 41 -36.667 65 -48s47.333 -17 70 -17c28 0 52.5 5 73.5 15s37.833 22.833 50.5 38.5s22 32 28 49s9 32.5 9 46.5c0 36 -10.667 64.5 -32 85.5s-45.666 33.833 -72.999 38.5v2c30 8 54 22.667 72 44s27 47.333 27 78
c0 20.667 -4.16699 40.667 -12.5 60s-19.833 33.666 -34.5 42.999v2l29 4l11 42l-92 -14c-12.667 4 -27 6 -43 6c-44 0 -81.333 -13.5 -112 -40.5s-46 -62.167 -46 -105.5c0 -31.333 9.5 -58.166 28.5 -80.499s39.167 -34.833 60.5 -37.5v-2
c-10.667 -1.33301 -21.667 -5.33301 -33 -12s-21.333 -14.667 -30 -24l40 -46c12 12.667 25.5 22.834 40.5 30.501s30.167 11.5 45.5 11.5c25.333 0 46.666 -9 63.999 -27s26 -37.667 26 -59c0 -23.333 -9 -43.833 -27 -61.5s-39.333 -26.5 -64 -26.5
c-18 0 -36.167 5.16699 -54.5 15.5s-34.5 24.166 -48.5 41.499zM92 248c0 22.667 8.66699 42.334 26 59.001s38.666 25 63.999 25c28 0 50 -8.66699 66 -26s24 -36.666 24 -57.999c0 -22.667 -8.66699 -42.334 -26 -59.001s-38.666 -25 -63.999 -25
c-28 0 -50 8.66699 -66 26s-24 36.666 -24 57.999z" />
    <glyph glyph-name="h" unicode="h" horiz-adv-x="407" 
d="M56 -6l64.002 12v217c0 27.333 8.33301 51 25 71s39 30 67 30c23.333 0 41.666 -8 54.999 -24s20 -38 20 -66v-240l64 12v251c0 22 -3.83301 41.333 -11.5 58s-17.834 30.5 -30.501 41.5s-26.667 19 -42 24s-30.666 7.5 -45.999 7.5
c-20.667 0 -39.334 -4.5 -56.001 -13.5s-31.667 -20.5 -45 -34.5v392l-64 -12v-726z" />
    <glyph glyph-name="i" unicode="i" horiz-adv-x="168" 
d="M52 -6l64 12v376l-64 -12v-376zM84 570l-52 -52l52 -52l52 52z" />
    <glyph glyph-name="j" unicode="j" horiz-adv-x="168" 
d="M17 -152c34.667 8.66699 59.833 26.833 75.5 54.5s23.5 61.834 23.5 102.501v377l-64 -12v-367c0 -28.667 -3.5 -49.334 -10.5 -62.001s-19.167 -21 -36.5 -25zM83.999 569.999l-52 -52l52 -52l52 52z" />
    <glyph glyph-name="k" unicode="k" horiz-adv-x="333" 
d="M52 720v-726l64 12v164l158 -182l59 33l-151 167l135 157l-50 37l-151 -179v529z" />
    <glyph glyph-name="l" unicode="l" horiz-adv-x="168" 
d="M52 720v-726l64 12v726z" />
    <glyph glyph-name="m" unicode="m" horiz-adv-x="592" 
d="M56 -6l64.001 11.9971v226c0 28 7.33301 50.333 22 67s31.667 25 51 25c22 0 39.333 -7.66699 52 -23s19 -37.666 19 -66.999v-240l64 12v226c0 28 7.33301 50.333 22 67s31.667 25 51 25c22 0 39.333 -7.66699 52 -23s19 -37.666 19 -66.999v-240l64 12v256
c0 38.667 -12.5 69.334 -37.5 92.001s-53.5 34 -85.5 34c-46 0 -82.667 -20 -110 -60c-26.667 40 -58.334 60 -95.001 60c-15.333 0 -31 -3 -47 -9s-31 -15.667 -45 -29v32l-60 -12v-376z" />
    <glyph glyph-name="n" unicode="n" horiz-adv-x="426" 
d="M56 -6l63.998 12.001v206c0 32.667 9.33301 59.5 28 80.5s43.334 31.5 74.001 31.5c26.667 0 47.334 -9.5 62.001 -28.5s22 -45.5 22 -79.5v-222l64 12v241c0 43.333 -13 77.666 -39 102.999s-60.667 38 -104 38c-23.333 0 -43.333 -4 -60 -12s-33.667 -21 -51 -39v45
l-60 -12v-376z" />
    <glyph glyph-name="o" unicode="o" horiz-adv-x="464" 
d="M96 188c0 38.667 13 71.667 39 99s58.333 41 97 41s71 -13.667 97 -41s39 -60.333 39 -99s-13 -71.667 -39 -99s-58.333 -41 -97 -41s-71 13.667 -97 41s-39 60.333 -39 99zM32 188c0 -25.333 5 -50 15 -74s24.167 -45.5 42.5 -64.5s39.666 -34 63.999 -45
s50.5 -16.5 78.5 -16.5s54.333 5.5 79 16.5s46 25.833 64 44.5s32 40.167 42 64.5s15 49.166 15 74.499s-5 50 -15 74s-24.167 45.5 -42.5 64.5s-39.666 34 -63.999 45s-50.5 16.5 -78.5 16.5s-54.333 -5.5 -79 -16.5s-46 -25.833 -64 -44.5s-32 -40.167 -42 -64.5
s-15 -49.166 -15 -74.499z" />
    <glyph glyph-name="p" unicode="p" horiz-adv-x="464" 
d="M52 -152l64 12.0029v193c39.333 -43.333 83 -65 131 -65c24.667 0 48.334 5.5 71.001 16.5s42.5 26 59.5 45s30.333 40.5 40 64.5s14.5 48.667 14.5 74c0 27.333 -5 53.166 -15 77.499s-23.833 45.666 -41.5 63.999s-37.834 32.666 -60.501 42.999
s-46.334 15.5 -71.001 15.5c-25.333 0 -48.666 -6 -69.999 -18s-40 -28.333 -56 -49h-2v61l-64 -12v-522zM120 188.003c0 38.667 11.667 71.667 35 99s53 41 89 41c33.333 0 62.333 -13.833 87 -41.5s37 -60.5 37 -98.5s-12.167 -70.833 -36.5 -98.5
s-52.5 -41.5 -84.5 -41.5c-35.333 0 -65.333 13.333 -90 40s-37 60 -37 100z" />
    <glyph glyph-name="q" unicode="q" horiz-adv-x="464" 
d="M348 -152l64 11.9971v522l-64 -12v-49h-2c-16 20.667 -34.667 37 -56 49s-44.666 18 -69.999 18c-24.667 0 -48.334 -5.16699 -71.001 -15.5s-42.834 -24.666 -60.501 -42.999s-31.5 -39.666 -41.5 -63.999s-15 -50.166 -15 -77.499c0 -25.333 4.83301 -50 14.5 -74
s23 -45.5 40 -64.5s36.833 -34 59.5 -45s46.334 -16.5 71.001 -16.5c48 0 91.667 21.667 131 65v-205zM344 187.997c0 -40 -12.333 -73.333 -37 -100s-54.667 -40 -90 -40c-32 0 -60.167 13.833 -84.5 41.5s-36.5 60.5 -36.5 98.5s12.333 70.833 37 98.5
s53.667 41.5 87 41.5c36 0 65.667 -13.667 89 -41s35 -60.333 35 -99z" />
    <glyph glyph-name="r" unicode="r" horiz-adv-x="222" 
d="M48 -6l60 12.001v148c0 52 9 91.667 27 119s43.667 43.666 77 48.999l10 60c-39.333 0 -77.333 -19.667 -114 -59v59l-60 -12v-376z" />
    <glyph glyph-name="s" unicode="s" horiz-adv-x="296" 
d="M40 41c11.333 -14 27.168 -26.334 47.501 -37.001s38.833 -16 55.5 -16c13.333 0 27 3 41 9s26.667 14 38 24c25.333 24 38 53 38 87c0 26.667 -8 49.834 -24 69.501s-40.667 34.834 -74 45.501c-24.667 8 -41.834 16.667 -51.501 26s-14.5 20.333 -14.5 33
c0 13.333 4.83301 25 14.5 35s20.834 15 33.501 15c13.333 0 24.333 -3.33301 33 -10s19.667 -18.667 33 -36l39 42c-21.333 24 -39.5 40 -54.5 48s-32.167 12 -51.5 12c-12.667 0 -25.5 -3 -38.5 -9s-24.5 -14 -34.5 -24c-22.667 -23.333 -34 -49.666 -34 -78.999
c0 -25.333 6.66699 -45.833 20 -61.5s36.333 -29.834 69 -42.501c28.667 -10.667 47.667 -20.834 57 -30.501s14 -23.167 14 -40.5c0 -14.667 -5 -27.167 -15 -37.5s-22.667 -15.5 -38 -15.5c-10.667 0 -21.834 3.16699 -33.501 9.5s-22.167 14.5 -31.5 24.5z" />
    <glyph glyph-name="t" unicode="t" horiz-adv-x="204" 
d="M191 58c-8 -1.33301 -16.666 -2 -25.999 -2c-17.333 0 -29.833 3.66699 -37.5 11s-11.5 18 -11.5 32v221h85v56h-85v134l-64 -11v-123h-19l-7 -56h26v-226c0 -29.333 8.16699 -52.333 24.5 -69s43.166 -25 80.499 -25c4 0 10.333 0.666992 19 2h3z" />
    <glyph glyph-name="u" unicode="u" horiz-adv-x="407" 
d="M56 119c0 -22 3.99902 -41.333 11.999 -58s18.333 -30.5 31 -41.5s26.667 -19 42 -24s30.333 -7.5 45 -7.5c40 0 75 17.667 105 53v-47l60 12v376l-64 -12v-217c0 -27.333 -8.5 -51 -25.5 -71s-40.167 -30 -69.5 -30c-21.333 0 -38.666 7.83301 -51.999 23.5
s-20 34.5 -20 56.5v250l-64 -12v-251z" />
    <glyph glyph-name="v" unicode="v" horiz-adv-x="370" 
d="M2 370l175 -400l191 400l-69 12l-117 -260l-108 260z" />
    <glyph glyph-name="w" unicode="w" horiz-adv-x="593" 
d="M285 382l-124 -260l-98 260l-66 -12l158 -400l142 300l120 -300l179 391l-60 21l-113 -260l-105 260h-33z" />
    <glyph glyph-name="x" unicode="x" horiz-adv-x="333" 
d="M4 343l119 -151l-121 -159l48 -39l113 150l118 -150l50 39l-124 159l114 151l-51 39l-104 -141l-111 141z" />
    <glyph glyph-name="y" unicode="y" horiz-adv-x="352" 
d="M144 86l-115 -226l68 -12l265 522l-69 12l-114 -226l-120 226l-69 -12z" />
    <glyph glyph-name="z" unicode="z" horiz-adv-x="352" 
d="M228 316l-216 -316h324v60h-210l214 316h-295l-12 -60h195z" />
    <glyph glyph-name="braceleft" unicode="{" horiz-adv-x="260" 
d="M40 276c23.333 0 39.166 -9.16504 47.499 -27.498s12.5 -54.5 12.5 -108.5v-152c0 -40.667 8.33301 -70.167 25 -88.5s42.334 -27.5 77.001 -27.5h45v40h-24c-22 0 -38 5.16699 -48 15.5s-15 28.166 -15 53.499v191c0 38 -5.16699 66.5 -15.5 85.5
s-25.166 31.5 -44.499 37.5v2c19.333 6 34.166 18.5 44.499 37.5s15.5 47.5 15.5 85.5v191c0 25.333 5 43.166 15 53.499s26 15.5 48 15.5h24v40h-45c-34.667 0 -60.334 -9.16699 -77.001 -27.5s-25 -47.833 -25 -88.5v-152c0 -53.333 -4.16699 -89.333 -12.5 -108
s-24.166 -28 -47.499 -28v-40z" />
    <glyph glyph-name="bar" unicode="|" horiz-adv-x="222" 
d="M86 -250h50v1000h-50v-1000z" />
    <glyph glyph-name="braceright" unicode="}" horiz-adv-x="260" 
d="M220 316c-23.333 0 -39.166 9.33105 -47.499 27.998s-12.5 54.667 -12.5 108v152c0 40.667 -8.33301 70.167 -25 88.5s-42.334 27.5 -77.001 27.5h-45v-40h24c22 0 38 -5.16699 48 -15.5s15 -28.166 15 -53.499v-191c0 -38 5.16699 -66.5 15.5 -85.5
s25.166 -31.5 44.499 -37.5v-2c-19.333 -6 -34.166 -18.5 -44.499 -37.5s-15.5 -47.5 -15.5 -85.5v-191c0 -25.333 -5 -43.166 -15 -53.499s-26 -15.5 -48 -15.5h-24v-40h45c34.667 0 60.334 9.16699 77.001 27.5s25 47.833 25 88.5v152c0 54 4.16699 90.167 12.5 108.5
s24.166 27.5 47.499 27.5v40z" />
    <glyph glyph-name="asciitilde" unicode="~" horiz-adv-x="600" 
d="M495 316c-15.333 -23.333 -29.332 -41.166 -41.999 -53.499s-28 -18.5 -46 -18.5c-12.667 0 -27.334 3.16699 -44.001 9.5s-36 15.166 -58 26.499c-20 10 -39.5 17.833 -58.5 23.5s-36.5 8.5 -52.5 8.5c-30.667 0 -55.834 -8 -75.501 -24s-36.167 -36.667 -49.5 -62
l36 -36c12.667 22.667 26 40.334 40 53.001s31.333 19 52 19c17.333 0 34.833 -3.16699 52.5 -9.5s35.834 -14.833 54.501 -25.5c19.333 -10.667 37 -18.834 53 -24.501s32.333 -8.5 49 -8.5c27.333 0 50 7.33301 68 22s37 36 57 64z" />
    <glyph glyph-name="exclamdown" unicode="&#xa1;" horiz-adv-x="258" 
d="M97 -140l64 12v558l-64 -12v-558zM187 546l-58 58l-58 -58l58 -58z" />
    <glyph glyph-name="cent" unicode="&#xa2;" 
d="M236 56c-27.333 9.33301 -49.333 25.832 -66 49.499s-25 51.167 -25 82.5c0 30 8.5 57.333 25.5 82s38.833 42.334 65.5 53.001v-267zM395 84.999c-36 -22.667 -70.333 -34.999 -103 -36.999v280c32.667 -2 67 -13.333 103 -34l12 59
c-18.667 11.333 -37.5 19.666 -56.5 24.999s-38.5 8.66602 -58.5 9.99902v47h-56v-52c-44.667 -10.667 -81.667 -34.5 -111 -71.5s-44 -78.167 -44 -123.5c0 -46.667 14.667 -88.167 44 -124.5s66.333 -60.166 111 -71.499v-71h56v67c40 3.33301 78.333 15.333 115 36z" />
    <glyph glyph-name="sterling" unicode="&#xa3;" 
d="M13 0l456.001 -0.000976562l35 64h-415l45 232h247v56h-236l32 166c10 51.333 26.167 91.5 48.5 120.5s53.166 43.5 92.499 43.5c24.667 0 47.667 -6.83301 69 -20.5s36.666 -27.5 45.999 -41.5l39 49c-21.333 18.667 -44.5 34.834 -69.5 48.501s-54.5 20.5 -88.5 20.5
c-58 0 -102.667 -18.667 -134 -56s-53.666 -91 -66.999 -161l-32 -169h-64v-56h53z" />
    <glyph glyph-name="currency" unicode="&#xa4;" 
d="M15 128l34 -34l50 50c20 -16.667 42.333 -29.167 67 -37.5s49.334 -12.5 74.001 -12.5s49.334 4.16699 74.001 12.5s47 20.833 67 37.5l50 -50l34 34l-49 51c16.667 19.333 29 41.166 37 65.499s12 49.166 12 74.499s-4 50.166 -12 74.499s-20.333 46.166 -37 65.499
l49 51l-34 34l-50 -50c-20 16.667 -42.333 29.167 -67 37.5s-49.334 12.5 -74.001 12.5s-49.334 -4.16699 -74.001 -12.5s-47 -20.833 -67 -37.5l-50 50l-34 -34l49 -51c-16.667 -19.333 -29 -41.166 -37 -65.499s-12 -49.166 -12 -74.499s4 -50.166 12 -74.499
s20.333 -46.166 37 -65.499zM65 319c0 24 4.5 46.667 13.5 68s21.5 40 37.5 56s34.667 28.5 56 37.5s44 13.5 68 13.5s46.667 -4.5 68 -13.5s40 -21.5 56 -37.5s28.5 -34.667 37.5 -56s13.5 -44 13.5 -68s-4.5 -46.667 -13.5 -68s-21.5 -40 -37.5 -56
s-34.667 -28.5 -56 -37.5s-44 -13.5 -68 -13.5s-46.667 4.5 -68 13.5s-40 21.5 -56 37.5s-28.5 34.667 -37.5 56s-13.5 44 -13.5 68z" />
    <glyph glyph-name="yen" unicode="&#xa5;" 
d="M204 -6l72 12v125h156v50h-156v94h156v50h-134l186 389l-68 12l-176 -374l-176 374l-68 -12l184 -389h-132v-50h156v-94h-156v-50h156v-137z" />
    <glyph glyph-name="brokenbar" unicode="&#xa6;" horiz-adv-x="222" 
d="M86 -175h50v350h-50v-350zM86 325h50v350h-50v-350z" />
    <glyph glyph-name="section" unicode="&#xa7;" 
d="M66 -79c18 -28 42.167 -49.334 72.5 -64.001s60.833 -22 91.5 -22c23.333 0 45.166 4.33301 65.499 13s37.833 20.667 52.5 36s25.834 32.666 33.501 51.999s11.5 39.333 11.5 60c0 22.667 -5.16699 43 -15.5 61s-26.5 36.333 -48.5 55c26.667 18.667 47.667 40 63 64
s23 50 23 78c0 16.667 -3.5 31.667 -10.5 45s-16.5 25.333 -28.5 36s-24.667 20 -38 28s-31 18 -53 30c-39.333 20.667 -68.833 39.5 -88.5 56.5s-29.5 37.833 -29.5 62.5c0 21.333 7.5 39 22.5 53s36.167 21 63.5 21c20 0 37.333 -4.33301 52 -13s28 -20.667 40 -36l44 36
c-24 26 -46.833 44.667 -68.5 56s-45.5 17 -71.5 17c-41.333 0 -75.333 -13.667 -102 -41s-40 -60 -40 -98c0 -42.667 16.667 -78 50 -106c-26.667 -12.667 -48.667 -31.167 -66 -55.5s-26 -49.166 -26 -74.499c0 -16.667 4 -32.167 12 -46.5s18.5 -27.333 31.5 -39
s26.667 -22.167 41 -31.5s33.5 -20.666 57.5 -33.999c42 -24.667 73.5 -46 94.5 -64s31.5 -39.667 31.5 -65c0 -26 -10.167 -48.5 -30.5 -67.5s-44.833 -28.5 -73.5 -28.5c-20 0 -41 6 -63 18s-38.333 27.667 -49 47zM125 276.999c0 15.333 6.66797 31.501 20.001 48.501
s32.666 31.833 57.999 44.5c16.667 -12 46 -28.667 88 -50c22.667 -11.333 39 -23.333 49 -36s15 -28 15 -46c0 -34 -24.333 -65.333 -73 -94c-8.66699 6.66699 -21.667 15.334 -39 26.001s-38.333 22.667 -63 36c-17.333 9.33301 -30.833 20.666 -40.5 33.999
s-14.5 25.666 -14.5 36.999z" />
    <glyph glyph-name="dieresis" unicode="&#xa8;" horiz-adv-x="168" 
d="M-44 524l52 -56l52 56l-52 56zM108 524l52 -56l52 56l-52 56z" />
    <glyph glyph-name="copyright" unicode="&#xa9;" horiz-adv-x="800" 
d="M547 282c-5.33301 -32.667 -20.1641 -59.501 -44.4971 -80.501s-54.5 -31.5 -90.5 -31.5c-26.667 0 -50.834 5.16699 -72.501 15.5s-39.834 24.333 -54.501 42s-26 38 -34 61s-12 46.833 -12 71.5c0 56 14.833 101.667 44.5 137s71.5 53 125.5 53
c36.667 0 67.334 -10 92.001 -30s40 -45.667 46 -77h57c-6.66699 48.667 -28 87 -64 115s-79.667 42 -131 42c-69.333 0 -124.333 -22.333 -165 -67s-61 -102.334 -61 -173.001c0 -33.333 5.33301 -64.666 16 -93.999s26.167 -55 46.5 -77s44.666 -39 72.999 -51
s59.5 -18 93.5 -18c47.333 0 88.166 14.833 122.499 44.5s57.5 68.834 69.5 117.501h-57zM22.002 359.999c0 -51.333 9.66699 -100 29 -146s46.5 -86.5 81.5 -121.5s75.5 -62.167 121.5 -81.5s94.667 -29 146 -29s100 9.66699 146 29s86.5 46.5 121.5 81.5
s62.167 75.5 81.5 121.5s29 94.667 29 146s-9.66699 100 -29 146s-46.5 86.5 -81.5 121.5s-75.5 62.167 -121.5 81.5s-94.667 29 -146 29s-100 -9.66699 -146 -29s-86.5 -46.5 -121.5 -81.5s-62.167 -75.5 -81.5 -121.5s-29 -94.667 -29 -146zM72.002 359.999
c0 46.667 8.33301 90.334 25 131.001s39.834 76 69.501 106s64.667 53.333 105 70s83.166 25 128.499 25s88 -8.33301 128 -25s75 -40.167 105 -70.5s53.333 -65.666 70 -105.999s25 -83.833 25 -130.5s-8.33301 -90.334 -25 -131.001s-39.834 -76 -69.501 -106
s-64.667 -53.333 -105 -70s-83.166 -25 -128.499 -25s-88 8.33301 -128 25s-75 40.167 -105 70.5s-53.333 65.666 -70 105.999s-25 83.833 -25 130.5z" />
    <glyph glyph-name="ordfeminine" unicode="&#xaa;" horiz-adv-x="211" 
d="M203 576c0 22 -6.50098 39.167 -19.501 51.5s-35.5 18.5 -67.5 18.5c-20 0 -34 -1 -42 -3l-9 -37c13.333 1.33301 25.333 2 36 2c37.333 0 56 -12 56 -36v-18h-2l1 4c-6 6 -14.167 10.833 -24.5 14.5s-21.833 5.5 -34.5 5.5c-24.667 0 -45.667 -8.5 -63 -25.5
s-26 -37.5 -26 -61.5c0 -21.333 8.33301 -40.833 25 -58.5s38.334 -26.5 65.001 -26.5c26 0 48 9 66 27v-24l39 8v159zM53.999 492c0 10 4.66699 19.833 14 29.5s22 14.5 38 14.5s28.5 -4.83301 37.5 -14.5s13.5 -19.5 13.5 -29.5s-4.5 -19.833 -13.5 -29.5
s-21.5 -14.5 -37.5 -14.5s-28.667 4.83301 -38 14.5s-14 19.5 -14 29.5z" />
    <glyph glyph-name="guillemotleft" unicode="&#xab;" horiz-adv-x="315" 
d="M-6 196l124 -122l52 24l-100 98l100 98l-52 24zM138 196l124 -122l52 24l-100 98l100 98l-52 24z" />
    <glyph glyph-name="logicalnot" unicode="&#xac;" horiz-adv-x="600" 
d="M503 108h50v267h-506v-50h456v-217z" />
    <glyph glyph-name="minus" unicode="&#xad;" horiz-adv-x="600" 
d="M47 228h506v50h-506v-50z" />
    <glyph glyph-name="minus" unicode="&#x2212;" horiz-adv-x="600" 
d="M47 228h506v50h-506v-50z" />
    <glyph glyph-name="registered" unicode="&#xae;" horiz-adv-x="800" 
d="M259 135l50 0.00195312v200h96l131 -200h64l-135 200c33.333 5.33301 60.333 18.166 81 38.499s31 49.166 31 86.499c0 40.667 -11.833 71.667 -35.5 93s-60.5 32 -110.5 32h-172v-450zM309 539.002l112 0.000976562c31.333 0 56.833 -5.83301 76.5 -17.5
s29.5 -31.834 29.5 -60.501c0 -30 -9.33301 -50.833 -28 -62.5s-44.667 -17.5 -78 -17.5h-112v158zM22 360.003c0 -51.333 9.66699 -100 29 -146s46.5 -86.5 81.5 -121.5s75.5 -62.167 121.5 -81.5s94.667 -29 146 -29s100 9.66699 146 29s86.5 46.5 121.5 81.5
s62.167 75.5 81.5 121.5s29 94.667 29 146s-9.66699 100 -29 146s-46.5 86.5 -81.5 121.5s-75.5 62.167 -121.5 81.5s-94.667 29 -146 29s-100 -9.66699 -146 -29s-86.5 -46.5 -121.5 -81.5s-62.167 -75.5 -81.5 -121.5s-29 -94.667 -29 -146zM72 360.003
c0 46.667 8.33301 90.334 25 131.001s39.834 76 69.501 106s64.667 53.333 105 70s83.166 25 128.499 25s88 -8.33301 128 -25s75 -40.167 105 -70.5s53.333 -65.666 70 -105.999s25 -83.833 25 -130.5s-8.33301 -90.334 -25 -131.001s-39.834 -76 -69.501 -106
s-64.667 -53.333 -105 -70s-83.166 -25 -128.499 -25s-88 8.33301 -128 25s-75 40.167 -105 70.5s-53.333 65.666 -70 105.999s-25 83.833 -25 130.5z" />
    <glyph glyph-name="macron" unicode="&#xaf;" horiz-adv-x="168" 
d="M-40 492h248v56h-248v-56z" />
    <glyph glyph-name="degree" unicode="&#xb0;" horiz-adv-x="400" 
d="M57 503c0 -39.333 14 -73 42 -101s61.667 -42 101 -42s73 14 101 42s42 61.667 42 101s-14 73 -42 101s-61.667 42 -101 42s-73 -14 -101 -42s-42 -61.667 -42 -101zM103 503c0 27.333 9.33301 50.333 28 69s41.667 28 69 28s50.333 -9.33301 69 -28s28 -41.667 28 -69
s-9.33301 -50.333 -28 -69s-41.667 -28 -69 -28s-50.333 9.33301 -69 28s-28 41.667 -28 69z" />
    <glyph glyph-name="plusminus" unicode="&#xb1;" horiz-adv-x="600" 
d="M275 324h-228v-50h228v-182h50v182h228v50h-228v182h-50v-182zM47 0h506v50h-506v-50z" />
    <glyph glyph-name="twosuperior" unicode="&#xb2;" horiz-adv-x="312" 
d="M280 258l11.001 42.002h-193v2c72 56.667 122.167 101.334 150.5 134.001s42.5 65 42.5 97c0 28.667 -12.167 54.667 -36.5 78s-56.833 35 -97.5 35c-41.333 0 -74.333 -11.333 -99 -34s-37 -50.334 -37 -83.001s10.167 -58.667 30.5 -78s47.166 -32 80.499 -38l-3 36
c-38.667 15.333 -58 42 -58 80c0 21.333 7.83301 39.166 23.5 53.499s35.5 21.5 59.5 21.5c26 0 47 -7.5 63 -22.5s24 -34.833 24 -59.5c0 -14.667 -5.66699 -30.834 -17 -48.501s-33 -41.167 -65 -70.5l-159 -145h280z" />
    <glyph glyph-name="threesuperior" unicode="&#xb3;" horiz-adv-x="312" 
d="M99 430l27.999 0.000976562c28.667 0 51.167 -6.33301 67.5 -19s24.5 -28.334 24.5 -47.001c0 -18 -8.16699 -34 -24.5 -48s-35.166 -21 -56.499 -21c-14.667 0 -29.667 4 -45 12s-27 17.333 -35 28l-32 -30c31.333 -34.667 70.333 -52 117 -52
c39.333 0 70.166 11 92.499 33s33.5 47.333 33.5 76c0 24 -7.5 44 -22.5 60s-32.833 25.667 -53.5 29v2c25.333 8 43.666 20.333 54.999 37s17 34 17 52c0 28 -11.167 52.333 -33.5 73s-51.166 31 -86.499 31c-23.333 0 -44.333 -4.16699 -63 -12.5s-35.667 -20.5 -51 -36.5
l15 -38c16.667 16 32.334 27.5 47.001 34.5s30.667 10.5 48 10.5c21.333 0 39 -6.16699 53 -18.5s21 -26.833 21 -43.5c0 -20 -9.5 -36.667 -28.5 -50s-39.833 -20 -62.5 -20h-25v-42z" />
    <glyph glyph-name="acute" unicode="&#xb4;" horiz-adv-x="168" 
d="M161 596l-133 -109l42 -39l138 109z" />
    <glyph glyph-name="mu" unicode="&#xb5;" horiz-adv-x="407" 
d="M287 370l-0.000976562 -217c0 -27.333 -8.5 -51 -25.5 -71s-40.167 -30 -69.5 -30c-21.333 0 -38.666 7.83301 -51.999 23.5s-20 34.5 -20 56.5v250l-64 -12v-522l64 12v153c16.667 -16.667 38.667 -25 66 -25c40 0 75 17.667 105 53v-47l60 12v376z" />
    <glyph glyph-name="paragraph" unicode="&#xb6;" horiz-adv-x="600" 
d="M249 -152l60 11.999v733h107v-745l60 12v778h-227c-60.667 0 -110.334 -17.167 -149.001 -51.5s-58 -81.5 -58 -141.5c0 -27.333 5.33301 -52.833 16 -76.5s25.334 -44.167 44.001 -61.5s40.667 -30.666 66 -39.999s52.333 -14 81 -14v-405z" />
    <glyph glyph-name="periodcentered" unicode="&#xb7;" horiz-adv-x="240" 
d="M65 301c0 -15.333 5.33301 -28.333 16 -39s23.667 -16 39 -16s28.333 5.33301 39 16s16 23.667 16 39s-5.33301 28.333 -16 39s-23.667 16 -39 16s-28.333 -5.33301 -39 -16s-16 -23.667 -16 -39z" />
    <glyph glyph-name="periodcentered" unicode="&#x2219;" horiz-adv-x="240" 
d="M65 301c0 -15.333 5.33301 -28.333 16 -39s23.667 -16 39 -16s28.333 5.33301 39 16s16 23.667 16 39s-5.33301 28.333 -16 39s-23.667 16 -39 16s-28.333 -5.33301 -39 -16s-16 -23.667 -16 -39z" />
    <glyph glyph-name="cedilla" unicode="&#xb8;" horiz-adv-x="168" 
d="M47 -38c5.33301 -8 9.5 -17.999 12.5 -29.999s4.5 -23 4.5 -33c0 -14.667 -2.83301 -27.334 -8.5 -38.001s-12.167 -20 -19.5 -28l45 -26c12 10 23.5 25 34.5 45s16.5 38.333 16.5 55c0 12 -1.33301 23.167 -4 33.5s-5.66699 17.5 -9 21.5h-72z" />
    <glyph glyph-name="onesuperior" unicode="&#xb9;" horiz-adv-x="168" 
d="M68 254l50 8v389l-99 -60v-50l49 29v-316z" />
    <glyph glyph-name="ordmasculine" unicode="&#xba;" horiz-adv-x="312" 
d="M76 526c0 21.333 7.5 39.665 22.5 54.998s34.167 23 57.5 23c22.667 0 41.667 -7.66699 57 -23s23 -33.666 23 -54.999s-7.66699 -39.666 -23 -54.999s-34.333 -23 -57 -23c-23.333 0 -42.5 7.5 -57.5 22.5s-22.5 33.5 -22.5 55.5zM26 525.999c0 -32 12.5 -60 37.5 -84
s55.833 -36 92.5 -36s67.5 12 92.5 36s37.5 52 37.5 84s-12.5 60 -37.5 84s-55.833 36 -92.5 36s-67.5 -12 -92.5 -36s-37.5 -52 -37.5 -84z" />
    <glyph glyph-name="guillemotright" unicode="&#xbb;" horiz-adv-x="315" 
d="M245 196l-100 -98l52 -24l124 122l-124 122l-52 -24zM101 196l-100 -98l52 -24l124 122l-124 122l-52 -24z" />
    <glyph glyph-name="onequarter" unicode="&#xbc;" horiz-adv-x="721" 
d="M578 128h-105l103 148h2v-148zM578 -4l50 8v82h53v42h-53v265l-231 -307h181v-90zM180 -8l371 654h-50l-371 -654h50zM89 254l50 8v389l-99 -60v-50l49 29v-316z" />
    <glyph glyph-name="onehalf" unicode="&#xbd;" horiz-adv-x="721" 
d="M141 -8l371 654h-50l-371 -654h50zM682 0l11.001 42.002h-193v2c72 56.667 122.167 101.334 150.5 134.001s42.5 65 42.5 97c0 28.667 -12.167 54.667 -36.5 78s-56.833 35 -97.5 35c-41.333 0 -74.333 -11.333 -99 -34s-37 -50.334 -37 -83.001s10.167 -58.667 30.5 -78
s47.166 -32 80.499 -38l-3 36c-38.667 15.333 -58 42 -58 80c0 21.333 7.83301 39.166 23.5 53.499s35.5 21.5 59.5 21.5c26 0 47 -7.5 63 -22.5s24 -34.833 24 -59.5c0 -14.667 -5.66699 -30.834 -17 -48.501s-33 -41.167 -65 -70.5l-159 -145h280zM77.001 254.002l50 8
v389l-99 -60v-50l49 29v-316z" />
    <glyph glyph-name="threequarters" unicode="&#xbe;" horiz-adv-x="721" 
d="M224 -8l371 654h-50l-371 -654h50zM101 430l27.999 0.000976562c28.667 0 51.167 -6.33301 67.5 -19s24.5 -28.334 24.5 -47.001c0 -18 -8.16699 -34 -24.5 -48s-35.166 -21 -56.499 -21c-14.667 0 -29.667 4 -45 12s-27 17.333 -35 28l-32 -30
c31.333 -34.667 70.333 -52 117 -52c39.333 0 70.166 11 92.499 33s33.5 47.333 33.5 76c0 24 -7.5 44 -22.5 60s-32.833 25.667 -53.5 29v2c25.333 8 43.666 20.333 54.999 37s17 34 17 52c0 28 -11.167 52.333 -33.5 73s-51.166 31 -86.499 31
c-23.333 0 -44.333 -4.16699 -63 -12.5s-35.667 -20.5 -51 -36.5l15 -38c16.667 16 32.334 27.5 47.001 34.5s30.667 10.5 48 10.5c21.333 0 39 -6.16699 53 -18.5s21 -26.833 21 -43.5c0 -20 -9.5 -36.667 -28.5 -50s-39.833 -20 -62.5 -20h-25v-42zM589.999 128.001h-105
l103 148h2v-148zM589.999 -3.99902l50 8v82h53v42h-53v265l-231 -307h181v-90z" />
    <glyph glyph-name="questiondown" unicode="&#xbf;" horiz-adv-x="444" 
d="M358 10c-8 -26 -23.166 -49.499 -45.499 -70.499s-49.5 -31.5 -81.5 -31.5c-34.667 0 -65.5 12.667 -92.5 38s-40.5 58.333 -40.5 99c0 25.333 6.66699 47.166 20 65.499s33.666 36.166 60.999 53.499c18 11.333 32.5 22 43.5 32s19.833 21.5 26.5 34.5
s11.5 29.333 14.5 49s4.5 44.5 4.5 74.5v75l-60 -12v-46c0 -26.667 -1.16699 -48.167 -3.5 -64.5s-6 -29.666 -11 -39.999s-12 -19.666 -21 -27.999s-21.5 -18.166 -37.5 -29.499c-32.667 -23.333 -57.667 -47.833 -75 -73.5s-26 -56.834 -26 -93.501
c0 -26 4.83301 -50.833 14.5 -74.5s23.5 -44.5 41.5 -62.5s39.167 -32 63.5 -42s50.833 -15 79.5 -15c44 0 82.833 14.167 116.5 42.5s57.167 62.166 70.5 101.499zM296.001 546.001l-58 58l-58 -58l58 -58z" />
    <glyph glyph-name="Agrave" unicode="&#xc0;" horiz-adv-x="722" 
d="M237 868l129 -113l51 32l-123 116zM716 6l-361 732l-349 -732l73 -12l155 326h247l162 -326zM448 388h-181l86 203z" />
    <glyph glyph-name="Aacute" unicode="&#xc1;" horiz-adv-x="722" 
d="M438 903l-133 -109l42 -39l138 109zM716 6l-361 732l-349 -732l73 -12l155 326h247l162 -326zM448 388h-181l86 203z" />
    <glyph glyph-name="Acircumflex" unicode="&#xc2;" horiz-adv-x="722" 
d="M290 763l72 67l71 -65l36 44l-111 94l-105 -104zM716 6l-361 732l-349 -732l73 -12l155 326h247l162 -326zM448 388h-181l86 203z" />
    <glyph glyph-name="Atilde" unicode="&#xc3;" horiz-adv-x="722" 
d="M452 876c-4 -10 -8.99707 -17.999 -14.9971 -23.999s-13.667 -9 -23 -9c-12 0 -30.667 5.66699 -56 17c-25.333 10.667 -44 16 -56 16c-19.333 0 -35.333 -8 -48 -24s-22.334 -34.333 -29.001 -55l44 -11c2.66699 8.66699 7.16699 16.5 13.5 23.5s14.5 10.5 24.5 10.5
c7.33301 0 21.666 -4.66699 42.999 -14c14 -6 26 -10.667 36 -14s20 -5 30 -5c21.333 0 38.166 8.16699 50.499 24.5s22.5 35.166 30.5 56.499zM716.003 6.00098l-361 732l-349 -732l73 -12l155 326h247l162 -326zM448.003 388.001h-181l86 203z" />
    <glyph glyph-name="Adieresis" unicode="&#xc4;" horiz-adv-x="722" 
d="M233 831l52 -56l52 56l-52 56zM385 831l52 -56l52 56l-52 56zM716 6l-361 732l-349 -732l73 -12l155 326h247l162 -326zM448 388h-181l86 203z" />
    <glyph glyph-name="Aring" unicode="&#xc5;" horiz-adv-x="722" 
d="M361 747c25.333 0 47.333 9.16699 66 27.5s28 40.5 28 66.5c0 25.333 -9.33301 47.333 -28 66s-40.667 28 -66 28s-47.333 -9.33301 -66 -28s-28 -40.667 -28 -66c0 -26 9.33301 -48.167 28 -66.5s40.667 -27.5 66 -27.5zM312 841c0 13.333 4.83301 24.833 14.5 34.5
s21.167 14.5 34.5 14.5s24.833 -5 34.5 -15s14.5 -21.333 14.5 -34s-5 -24 -15 -34s-21.333 -15 -34 -15c-13.333 0 -24.833 4.83301 -34.5 14.5s-14.5 21.167 -14.5 34.5zM716 6l-361 732l-349 -732l73 -12l155 326h247l162 -326zM448 388h-181l86 203z" />
    <glyph glyph-name="AE" unicode="&#xc6;" horiz-adv-x="926" 
d="M464 602h2l28 -206h-156zM0 18l61 -36l234 350h208l46 -332h355l16 64h-305l-40 268h273v64h-282l-39 260h334l-10 64h-382z" />
    <glyph glyph-name="Ccedilla" unicode="&#xc7;" horiz-adv-x="667" 
d="M616 124c-29.333 -23.333 -62.002 -41.499 -98.002 -54.499s-70 -19.5 -102 -19.5c-43.333 0 -83.833 8 -121.5 24s-70.5 38.333 -98.5 67s-49.667 61.834 -65 99.501s-23 77.5 -23 119.5s7.66699 81.833 23 119.5s37 70.834 65 99.501s60.833 51 98.5 67
s78.167 24 121.5 24c36.667 0 72 -6.33301 106 -19s64.333 -31.334 91 -56.001l34 62c-32.667 26.667 -69 46.834 -109 60.501s-80.667 20.5 -122 20.5c-56 0 -107.833 -10.333 -155.5 -31s-88.5 -48.834 -122.5 -84.501s-60.167 -76.167 -78.5 -121.5
s-27.5 -92.333 -27.5 -141s9.16699 -95.667 27.5 -141s44.5 -85.833 78.5 -121.5s74.833 -63.834 122.5 -84.501s99.5 -31 155.5 -31c40.667 0 81.834 7.16699 123.501 21.5s79.834 35.166 114.501 62.499zM343.998 -37.999c5.33301 -8 9.5 -17.999 12.5 -29.999
s4.5 -23 4.5 -33c0 -14.667 -2.83301 -27.334 -8.5 -38.001s-12.167 -20 -19.5 -28l45 -26c12 10 23.5 25 34.5 45s16.5 38.333 16.5 55c0 12 -1.33301 23.167 -4 33.5s-5.66699 17.5 -9 21.5h-72z" />
    <glyph glyph-name="Egrave" unicode="&#xc8;" horiz-adv-x="444" 
d="M98 868l129 -113l51 32l-123 116zM57 0h351l23 64h-302v268h237v64h-237v260h267l-9 64h-330v-720z" />
    <glyph glyph-name="Eacute" unicode="&#xc9;" horiz-adv-x="444" 
d="M299 903l-133 -109l42 -39l138 109zM57 0h351l23 64h-302v268h237v64h-237v260h267l-9 64h-330v-720z" />
    <glyph glyph-name="Ecircumflex" unicode="&#xca;" horiz-adv-x="444" 
d="M151 763l72 67l71 -65l36 44l-111 94l-105 -104zM57 0h351l23 64h-302v268h237v64h-237v260h267l-9 64h-330v-720z" />
    <glyph glyph-name="Edieresis" unicode="&#xcb;" horiz-adv-x="444" 
d="M94 831l52 -56l52 56l-52 56zM246 831l52 -56l52 56l-52 56zM57 0h351l23 64h-302v268h237v64h-237v260h267l-9 64h-330v-720z" />
    <glyph glyph-name="Igrave" unicode="&#xcc;" horiz-adv-x="186" 
d="M-31 868l129 -113l51 32l-123 116zM57 -6l72 12v720l-72 -12v-720z" />
    <glyph glyph-name="Iacute" unicode="&#xcd;" horiz-adv-x="186" 
d="M170 903l-133 -109l42 -39l138 109zM57 -6l72 12v720l-72 -12v-720z" />
    <glyph glyph-name="Icircumflex" unicode="&#xce;" horiz-adv-x="186" 
d="M22 763l72 67l71 -65l36 44l-111 94l-105 -104zM57 -6l72 12v720l-72 -12v-720z" />
    <glyph glyph-name="Idieresis" unicode="&#xcf;" horiz-adv-x="186" 
d="M-35 831l52 -56l52 56l-52 56zM117 831l52 -56l52 56l-52 56zM57 -6l72 12v720l-72 -12v-720z" />
    <glyph glyph-name="Eth" unicode="&#xd0;" horiz-adv-x="537" 
d="M51 0h69.001c57.333 0 110 9.66699 158 29s88.833 46 122.5 80s59.5 72.667 77.5 116s27 88.333 27 135c0 46 -8.16699 90.5 -24.5 133.5s-40.333 81.5 -72 115.5s-71.334 61 -119.001 81s-101.5 30 -161.5 30h-77v-326h-51v-64h51v-330zM123.001 652l17 0.00195312
c40.667 0 78.834 -7.5 114.501 -22.5s66.5 -35.667 92.5 -62s46.167 -56.833 60.5 -91.5s21.5 -71.334 21.5 -110.001c0 -39.333 -6.33301 -76.833 -19 -112.5s-31.667 -67.334 -57 -95.001s-57.333 -49.5 -96 -65.5s-83.334 -24.333 -134.001 -25v262h171v64h-171v258z" />
    <glyph glyph-name="Ntilde" unicode="&#xd1;" horiz-adv-x="704" 
d="M443 876c-4 -10 -8.99707 -17.999 -14.9971 -23.999s-13.667 -9 -23 -9c-12 0 -30.667 5.66699 -56 17c-25.333 10.667 -44 16 -56 16c-19.333 0 -35.333 -8 -48 -24s-22.334 -34.333 -29.001 -55l44 -11c2.66699 8.66699 7.16699 16.5 13.5 23.5s14.5 10.5 24.5 10.5
c7.33301 0 21.666 -4.66699 42.999 -14c14 -6 26 -10.667 36 -14s20 -5 30 -5c21.333 0 38.166 8.16699 50.499 24.5s22.5 35.166 30.5 56.499zM579.003 155.001l-526 577v-738l72 12v551l526 -575v744l-72 -12v-559z" />
    <glyph glyph-name="Ograve" unicode="&#xd2;" horiz-adv-x="832" 
d="M292 868l129 -113l51 32l-123 116zM108 360c0 42 7.66699 81.833 23 119.5s37 70.834 65 99.501s60.833 51 98.5 67s78.167 24 121.5 24s83.833 -8 121.5 -24s70.5 -38.333 98.5 -67s49.667 -61.834 65 -99.501s23 -77.5 23 -119.5s-7.66699 -81.833 -23 -119.5
s-37 -70.834 -65 -99.501s-60.833 -51 -98.5 -67s-78.167 -24 -121.5 -24s-83.833 8 -121.5 24s-70.5 38.333 -98.5 67s-49.667 61.834 -65 99.501s-23 77.5 -23 119.5zM32 360c0 -48.667 9.16699 -95.667 27.5 -141s44.5 -85.833 78.5 -121.5s74.833 -63.834 122.5 -84.501
s99.5 -31 155.5 -31s107.833 10.333 155.5 31s88.5 48.834 122.5 84.501s60.167 76.167 78.5 121.5s27.5 92.333 27.5 141s-9.16699 95.667 -27.5 141s-44.5 85.833 -78.5 121.5s-74.833 63.834 -122.5 84.501s-99.5 31 -155.5 31s-107.833 -10.333 -155.5 -31
s-88.5 -48.834 -122.5 -84.501s-60.167 -76.167 -78.5 -121.5s-27.5 -92.333 -27.5 -141z" />
    <glyph glyph-name="Oacute" unicode="&#xd3;" horiz-adv-x="832" 
d="M493 903l-133 -109l42 -39l138 109zM108 360c0 42 7.66699 81.833 23 119.5s37 70.834 65 99.501s60.833 51 98.5 67s78.167 24 121.5 24s83.833 -8 121.5 -24s70.5 -38.333 98.5 -67s49.667 -61.834 65 -99.501s23 -77.5 23 -119.5s-7.66699 -81.833 -23 -119.5
s-37 -70.834 -65 -99.501s-60.833 -51 -98.5 -67s-78.167 -24 -121.5 -24s-83.833 8 -121.5 24s-70.5 38.333 -98.5 67s-49.667 61.834 -65 99.501s-23 77.5 -23 119.5zM32 360c0 -48.667 9.16699 -95.667 27.5 -141s44.5 -85.833 78.5 -121.5s74.833 -63.834 122.5 -84.501
s99.5 -31 155.5 -31s107.833 10.333 155.5 31s88.5 48.834 122.5 84.501s60.167 76.167 78.5 121.5s27.5 92.333 27.5 141s-9.16699 95.667 -27.5 141s-44.5 85.833 -78.5 121.5s-74.833 63.834 -122.5 84.501s-99.5 31 -155.5 31s-107.833 -10.333 -155.5 -31
s-88.5 -48.834 -122.5 -84.501s-60.167 -76.167 -78.5 -121.5s-27.5 -92.333 -27.5 -141z" />
    <glyph glyph-name="Ocircumflex" unicode="&#xd4;" horiz-adv-x="832" 
d="M345 763l72 67l71 -65l36 44l-111 94l-105 -104zM108 360c0 42 7.66699 81.833 23 119.5s37 70.834 65 99.501s60.833 51 98.5 67s78.167 24 121.5 24s83.833 -8 121.5 -24s70.5 -38.333 98.5 -67s49.667 -61.834 65 -99.501s23 -77.5 23 -119.5
s-7.66699 -81.833 -23 -119.5s-37 -70.834 -65 -99.501s-60.833 -51 -98.5 -67s-78.167 -24 -121.5 -24s-83.833 8 -121.5 24s-70.5 38.333 -98.5 67s-49.667 61.834 -65 99.501s-23 77.5 -23 119.5zM32 360c0 -48.667 9.16699 -95.667 27.5 -141s44.5 -85.833 78.5 -121.5
s74.833 -63.834 122.5 -84.501s99.5 -31 155.5 -31s107.833 10.333 155.5 31s88.5 48.834 122.5 84.501s60.167 76.167 78.5 121.5s27.5 92.333 27.5 141s-9.16699 95.667 -27.5 141s-44.5 85.833 -78.5 121.5s-74.833 63.834 -122.5 84.501s-99.5 31 -155.5 31
s-107.833 -10.333 -155.5 -31s-88.5 -48.834 -122.5 -84.501s-60.167 -76.167 -78.5 -121.5s-27.5 -92.333 -27.5 -141z" />
    <glyph glyph-name="Otilde" unicode="&#xd5;" horiz-adv-x="832" 
d="M507 876c-4 -10 -8.99707 -17.999 -14.9971 -23.999s-13.667 -9 -23 -9c-12 0 -30.667 5.66699 -56 17c-25.333 10.667 -44 16 -56 16c-19.333 0 -35.333 -8 -48 -24s-22.334 -34.333 -29.001 -55l44 -11c2.66699 8.66699 7.16699 16.5 13.5 23.5s14.5 10.5 24.5 10.5
c7.33301 0 21.666 -4.66699 42.999 -14c14 -6 26 -10.667 36 -14s20 -5 30 -5c21.333 0 38.166 8.16699 50.499 24.5s22.5 35.166 30.5 56.499zM108.003 360.001c0 42 7.66699 81.833 23 119.5s37 70.834 65 99.501s60.833 51 98.5 67s78.167 24 121.5 24
s83.833 -8 121.5 -24s70.5 -38.333 98.5 -67s49.667 -61.834 65 -99.501s23 -77.5 23 -119.5s-7.66699 -81.833 -23 -119.5s-37 -70.834 -65 -99.501s-60.833 -51 -98.5 -67s-78.167 -24 -121.5 -24s-83.833 8 -121.5 24s-70.5 38.333 -98.5 67s-49.667 61.834 -65 99.501
s-23 77.5 -23 119.5zM32.0029 360.001c0 -48.667 9.16699 -95.667 27.5 -141s44.5 -85.833 78.5 -121.5s74.833 -63.834 122.5 -84.501s99.5 -31 155.5 -31s107.833 10.333 155.5 31s88.5 48.834 122.5 84.501s60.167 76.167 78.5 121.5s27.5 92.333 27.5 141
s-9.16699 95.667 -27.5 141s-44.5 85.833 -78.5 121.5s-74.833 63.834 -122.5 84.501s-99.5 31 -155.5 31s-107.833 -10.333 -155.5 -31s-88.5 -48.834 -122.5 -84.501s-60.167 -76.167 -78.5 -121.5s-27.5 -92.333 -27.5 -141z" />
    <glyph glyph-name="Odieresis" unicode="&#xd6;" horiz-adv-x="832" 
d="M288 831l52 -56l52 56l-52 56zM440 831l52 -56l52 56l-52 56zM108 360c0 42 7.66699 81.833 23 119.5s37 70.834 65 99.501s60.833 51 98.5 67s78.167 24 121.5 24s83.833 -8 121.5 -24s70.5 -38.333 98.5 -67s49.667 -61.834 65 -99.501s23 -77.5 23 -119.5
s-7.66699 -81.833 -23 -119.5s-37 -70.834 -65 -99.501s-60.833 -51 -98.5 -67s-78.167 -24 -121.5 -24s-83.833 8 -121.5 24s-70.5 38.333 -98.5 67s-49.667 61.834 -65 99.501s-23 77.5 -23 119.5zM32 360c0 -48.667 9.16699 -95.667 27.5 -141s44.5 -85.833 78.5 -121.5
s74.833 -63.834 122.5 -84.501s99.5 -31 155.5 -31s107.833 10.333 155.5 31s88.5 48.834 122.5 84.501s60.167 76.167 78.5 121.5s27.5 92.333 27.5 141s-9.16699 95.667 -27.5 141s-44.5 85.833 -78.5 121.5s-74.833 63.834 -122.5 84.501s-99.5 31 -155.5 31
s-107.833 -10.333 -155.5 -31s-88.5 -48.834 -122.5 -84.501s-60.167 -76.167 -78.5 -121.5s-27.5 -92.333 -27.5 -141z" />
    <glyph glyph-name="multiply" unicode="&#xd7;" horiz-adv-x="600" 
d="M300 290l-190 189l-36 -36l190 -190l-190 -190l36 -36l190 191l190 -191l36 36l-190 190l190 190l-36 36z" />
    <glyph glyph-name="Oslash" unicode="&#xd8;" horiz-adv-x="832" 
d="M167 176c-18.667 26 -33.167 54.666 -43.5 85.999s-15.5 64 -15.5 98c0 42 7.66699 81.833 23 119.5s37 70.834 65 99.501s60.833 51 98.5 67s78.167 24 121.5 24c42 0 81.333 -7.5 118 -22.5s68.667 -36.167 96 -63.5zM21 47.999l36.001 -40l91 80
c34.667 -33.333 74.667 -59.333 120 -78s94.666 -28 147.999 -28c56 0 107.833 10.333 155.5 31s88.5 48.834 122.5 84.501s60.167 76.167 78.5 121.5s27.5 92.333 27.5 141c0 42 -6.83301 82.833 -20.5 122.5s-33.5 76.167 -59.5 109.5l91 80l-36 40l-91 -80
c-33.333 33.333 -73 59.333 -119 78s-95.667 28 -149 28c-56 0 -107.833 -10.333 -155.5 -31s-88.5 -48.834 -122.5 -84.501s-60.167 -76.167 -78.5 -121.5s-27.5 -92.333 -27.5 -141c0 -42 7 -82.833 21 -122.5s33.667 -76.167 59 -109.5zM665.001 543.999
c18.667 -26 33.166 -54.666 43.499 -85.999s15.5 -64 15.5 -98c0 -42 -7.66699 -81.833 -23 -119.5s-37 -70.834 -65 -99.501s-60.833 -51 -98.5 -67s-78.167 -24 -121.5 -24c-41.333 0 -80.166 7.5 -116.499 22.5s-68.833 36.167 -97.5 63.5z" />
    <glyph glyph-name="Ugrave" unicode="&#xd9;" horiz-adv-x="630" 
d="M191 868l129 -113l51 32l-123 116zM54 215c0 -34 6.50098 -65.332 19.501 -93.999s31.167 -53.334 54.5 -74.001s50.666 -36.667 81.999 -48s65 -17 101 -17c86.667 0 153 34.333 199 103l2 -2l-8 -89l72 12v720l-72 -12v-441c0 -72.667 -17.333 -128 -52 -166
s-81 -57 -139 -57c-54.667 0 -99.5 16 -134.5 48s-52.5 74.667 -52.5 128v500l-72 -12v-499z" />
    <glyph glyph-name="Uacute" unicode="&#xda;" horiz-adv-x="630" 
d="M392 903l-133 -109l42 -39l138 109zM54 215c0 -34 6.50098 -65.332 19.501 -93.999s31.167 -53.334 54.5 -74.001s50.666 -36.667 81.999 -48s65 -17 101 -17c86.667 0 153 34.333 199 103l2 -2l-8 -89l72 12v720l-72 -12v-441c0 -72.667 -17.333 -128 -52 -166
s-81 -57 -139 -57c-54.667 0 -99.5 16 -134.5 48s-52.5 74.667 -52.5 128v500l-72 -12v-499z" />
    <glyph glyph-name="Ucircumflex" unicode="&#xdb;" horiz-adv-x="630" 
d="M244 763l72 67l71 -65l36 44l-111 94l-105 -104zM54 215c0 -34 6.50098 -65.332 19.501 -93.999s31.167 -53.334 54.5 -74.001s50.666 -36.667 81.999 -48s65 -17 101 -17c86.667 0 153 34.333 199 103l2 -2l-8 -89l72 12v720l-72 -12v-441
c0 -72.667 -17.333 -128 -52 -166s-81 -57 -139 -57c-54.667 0 -99.5 16 -134.5 48s-52.5 74.667 -52.5 128v500l-72 -12v-499z" />
    <glyph glyph-name="Udieresis" unicode="&#xdc;" horiz-adv-x="630" 
d="M187 831l52 -56l52 56l-52 56zM339 831l52 -56l52 56l-52 56zM54 215c0 -34 6.50098 -65.332 19.501 -93.999s31.167 -53.334 54.5 -74.001s50.666 -36.667 81.999 -48s65 -17 101 -17c86.667 0 153 34.333 199 103l2 -2l-8 -89l72 12v720l-72 -12v-441
c0 -72.667 -17.333 -128 -52 -166s-81 -57 -139 -57c-54.667 0 -99.5 16 -134.5 48s-52.5 74.667 -52.5 128v500l-72 -12v-499z" />
    <glyph glyph-name="Yacute" unicode="&#xdd;" horiz-adv-x="519" 
d="M337 903l-133 -109l42 -39l138 109zM219 274l-139 -268l72 -12l371 720l-73 12l-194 -374l-188 374l-72 -12z" />
    <glyph glyph-name="Thorn" unicode="&#xde;" horiz-adv-x="426" 
d="M57 -6l72 12.001v146c92 1.33301 163.333 24.666 214 69.999s76 106.333 76 183c0 71.333 -26.167 128.5 -78.5 171.5s-122.833 66.167 -211.5 69.5v80l-72 -12v-720zM129 578.001c63.333 0 115.5 -15.5 156.5 -46.5s61.5 -75.167 61.5 -132.5
c0 -31.333 -5.66699 -58.333 -17 -81s-26.833 -41.167 -46.5 -55.5s-42.667 -25 -69 -32s-54.833 -10.5 -85.5 -10.5v358z" />
    <glyph glyph-name="germandbls" unicode="&#xdf;" horiz-adv-x="444" 
d="M157 -8c13.333 -2.66699 24.3359 -4.00195 33.0029 -4.00195c34 0 64.833 5.83301 92.5 17.5s50.834 27.5 69.501 47.5s32.667 42.667 42 68s14 51 14 77c0 48.667 -13.333 88.834 -40 120.501s-58.334 50.834 -95.001 57.501v2c39.333 11.333 70 31.333 92 60
s33 63.667 33 105c0 56.667 -17.333 101.334 -52 134.001s-78.334 49 -131.001 49c-47.333 0 -85.666 -15 -114.999 -45s-44 -76.667 -44 -140v-547l64 12v551c0 37.333 8.66699 64.833 26 82.5s41 26.5 71 26.5c37.333 0 66.166 -11.5 86.499 -34.5s30.5 -52.5 30.5 -88.5
c0 -44 -14.333 -77.667 -43 -101s-65.334 -35 -110.001 -35v-64c51.333 0 91.333 -12.833 120 -38.5s43 -62.167 43 -109.5c0 -44.667 -13.333 -80.334 -40 -107.001s-61.334 -40 -104.001 -40c-18 0 -32.333 1.33301 -43 4v-60z" />
    <glyph glyph-name="agrave" unicode="&#xe0;" horiz-adv-x="352" 
d="M52 561l129 -113l51 32l-123 116zM250 -6l50.0039 12.001v265c0 36.667 -9.33301 65.334 -28 86.001s-50.334 31 -95.001 31c-26 0 -44 -1.66699 -54 -5l-14 -55c21.333 2.66699 39.666 4 54.999 4c50.667 0 76 -20.333 76 -61v-36h-2
c-8 9.33301 -19.833 17.166 -35.5 23.499s-31.834 9.5 -48.501 9.5c-17.333 0 -34 -3.66699 -50 -11s-30.167 -17.5 -42.5 -30.5s-22 -28.167 -29 -45.5s-10.5 -35.333 -10.5 -54c0 -16 3.16699 -32.333 9.5 -49s15.5 -31.834 27.5 -45.501s26.167 -24.5 42.5 -32.5
s34.166 -12 53.499 -12c36 0 67.667 15 95 45v-39zM82.0039 128.001c0 18.667 7 36.667 21 54s33.333 26 58 26s44 -8.66699 58 -26s21 -35.333 21 -54s-7 -36.667 -21 -54s-33.333 -26 -58 -26s-44 8.66699 -58 26s-21 35.333 -21 54z" />
    <glyph glyph-name="aacute" unicode="&#xe1;" horiz-adv-x="352" 
d="M253 596l-133 -109l42 -39l138 109zM250 -6l50.0039 12.001v265c0 36.667 -9.33301 65.334 -28 86.001s-50.334 31 -95.001 31c-26 0 -44 -1.66699 -54 -5l-14 -55c21.333 2.66699 39.666 4 54.999 4c50.667 0 76 -20.333 76 -61v-36h-2
c-8 9.33301 -19.833 17.166 -35.5 23.499s-31.834 9.5 -48.501 9.5c-17.333 0 -34 -3.66699 -50 -11s-30.167 -17.5 -42.5 -30.5s-22 -28.167 -29 -45.5s-10.5 -35.333 -10.5 -54c0 -16 3.16699 -32.333 9.5 -49s15.5 -31.834 27.5 -45.501s26.167 -24.5 42.5 -32.5
s34.166 -12 53.499 -12c36 0 67.667 15 95 45v-39zM82.0039 128.001c0 18.667 7 36.667 21 54s33.333 26 58 26s44 -8.66699 58 -26s21 -35.333 21 -54s-7 -36.667 -21 -54s-33.333 -26 -58 -26s-44 8.66699 -58 26s-21 35.333 -21 54z" />
    <glyph glyph-name="acircumflex" unicode="&#xe2;" horiz-adv-x="352" 
d="M105 456l72 67l71 -65l36 44l-111 94l-105 -104zM250 -6l50.0039 12.001v265c0 36.667 -9.33301 65.334 -28 86.001s-50.334 31 -95.001 31c-26 0 -44 -1.66699 -54 -5l-14 -55c21.333 2.66699 39.666 4 54.999 4c50.667 0 76 -20.333 76 -61v-36h-2
c-8 9.33301 -19.833 17.166 -35.5 23.499s-31.834 9.5 -48.501 9.5c-17.333 0 -34 -3.66699 -50 -11s-30.167 -17.5 -42.5 -30.5s-22 -28.167 -29 -45.5s-10.5 -35.333 -10.5 -54c0 -16 3.16699 -32.333 9.5 -49s15.5 -31.834 27.5 -45.501s26.167 -24.5 42.5 -32.5
s34.166 -12 53.499 -12c36 0 67.667 15 95 45v-39zM82.0039 128.001c0 18.667 7 36.667 21 54s33.333 26 58 26s44 -8.66699 58 -26s21 -35.333 21 -54s-7 -36.667 -21 -54s-33.333 -26 -58 -26s-44 8.66699 -58 26s-21 35.333 -21 54z" />
    <glyph glyph-name="atilde" unicode="&#xe3;" horiz-adv-x="352" 
d="M267 569c-4 -10 -8.99707 -17.999 -14.9971 -23.999s-13.667 -9 -23 -9c-12 0 -30.667 5.66699 -56 17c-25.333 10.667 -44 16 -56 16c-19.333 0 -35.333 -8 -48 -24s-22.334 -34.333 -29.001 -55l44 -11c2.66699 8.66699 7.16699 16.5 13.5 23.5s14.5 10.5 24.5 10.5
c7.33301 0 21.666 -4.66699 42.999 -14c14 -6 26 -10.667 36 -14s20 -5 30 -5c21.333 0 38.166 8.16699 50.499 24.5s22.5 35.166 30.5 56.499zM250.003 -5.99902l50.0039 12.001v265c0 36.667 -9.33301 65.334 -28 86.001s-50.334 31 -95.001 31c-26 0 -44 -1.66699 -54 -5
l-14 -55c21.333 2.66699 39.666 4 54.999 4c50.667 0 76 -20.333 76 -61v-36h-2c-8 9.33301 -19.833 17.166 -35.5 23.499s-31.834 9.5 -48.501 9.5c-17.333 0 -34 -3.66699 -50 -11s-30.167 -17.5 -42.5 -30.5s-22 -28.167 -29 -45.5s-10.5 -35.333 -10.5 -54
c0 -16 3.16699 -32.333 9.5 -49s15.5 -31.834 27.5 -45.501s26.167 -24.5 42.5 -32.5s34.166 -12 53.499 -12c36 0 67.667 15 95 45v-39zM82.0068 128.002c0 18.667 7 36.667 21 54s33.333 26 58 26s44 -8.66699 58 -26s21 -35.333 21 -54s-7 -36.667 -21 -54
s-33.333 -26 -58 -26s-44 8.66699 -58 26s-21 35.333 -21 54z" />
    <glyph glyph-name="adieresis" unicode="&#xe4;" horiz-adv-x="352" 
d="M48 524l52 -56l52 56l-52 56zM200 524l52 -56l52 56l-52 56zM250 -6l50.0039 12.001v265c0 36.667 -9.33301 65.334 -28 86.001s-50.334 31 -95.001 31c-26 0 -44 -1.66699 -54 -5l-14 -55c21.333 2.66699 39.666 4 54.999 4c50.667 0 76 -20.333 76 -61v-36h-2
c-8 9.33301 -19.833 17.166 -35.5 23.499s-31.834 9.5 -48.501 9.5c-17.333 0 -34 -3.66699 -50 -11s-30.167 -17.5 -42.5 -30.5s-22 -28.167 -29 -45.5s-10.5 -35.333 -10.5 -54c0 -16 3.16699 -32.333 9.5 -49s15.5 -31.834 27.5 -45.501s26.167 -24.5 42.5 -32.5
s34.166 -12 53.499 -12c36 0 67.667 15 95 45v-39zM82.0039 128.001c0 18.667 7 36.667 21 54s33.333 26 58 26s44 -8.66699 58 -26s21 -35.333 21 -54s-7 -36.667 -21 -54s-33.333 -26 -58 -26s-44 8.66699 -58 26s-21 35.333 -21 54z" />
    <glyph glyph-name="aring" unicode="&#xe5;" horiz-adv-x="352" 
d="M176 435c25.333 0 47.333 9.16699 66 27.5s28 40.5 28 66.5c0 25.333 -9.33301 47.333 -28 66s-40.667 28 -66 28s-47.333 -9.33301 -66 -28s-28 -40.667 -28 -66c0 -26 9.33301 -48.167 28 -66.5s40.667 -27.5 66 -27.5zM127 529c0 13.333 4.83301 24.833 14.5 34.5
s21.167 14.5 34.5 14.5s24.833 -5 34.5 -15s14.5 -21.333 14.5 -34s-5 -24 -15 -34s-21.333 -15 -34 -15c-13.333 0 -24.833 4.83301 -34.5 14.5s-14.5 21.167 -14.5 34.5zM250 -6l50.0039 12.001v265c0 36.667 -9.33301 65.334 -28 86.001s-50.334 31 -95.001 31
c-26 0 -44 -1.66699 -54 -5l-14 -55c21.333 2.66699 39.666 4 54.999 4c50.667 0 76 -20.333 76 -61v-36h-2c-8 9.33301 -19.833 17.166 -35.5 23.499s-31.834 9.5 -48.501 9.5c-17.333 0 -34 -3.66699 -50 -11s-30.167 -17.5 -42.5 -30.5s-22 -28.167 -29 -45.5
s-10.5 -35.333 -10.5 -54c0 -16 3.16699 -32.333 9.5 -49s15.5 -31.834 27.5 -45.501s26.167 -24.5 42.5 -32.5s34.166 -12 53.499 -12c36 0 67.667 15 95 45v-39zM82.0039 128.001c0 18.667 7 36.667 21 54s33.333 26 58 26s44 -8.66699 58 -26s21 -35.333 21 -54
s-7 -36.667 -21 -54s-33.333 -26 -58 -26s-44 8.66699 -58 26s-21 35.333 -21 54z" />
    <glyph glyph-name="ae" unicode="&#xe6;" horiz-adv-x="611" 
d="M299 179c-1.33301 4.66699 -2 11.667 -2 21c0 18.667 4 36 12 52s18.833 30 32.5 42s28.667 21.333 45 28s32.5 10 48.5 10c34 0 61 -11 81 -33zM29 127c0 -16 3.16992 -32.3311 9.50293 -48.998s15.666 -31.834 27.999 -45.501s27 -24.5 44 -32.5s35.833 -12 56.5 -12
c36 0 67.667 15 95 45v-39l44 12v43h2h-1c14.667 -19.333 33.5 -34.333 56.5 -45s47.5 -16 73.5 -16c40 0 82 12 126 36l-12 61c-40 -24.667 -78 -37 -114 -37c-25.333 0 -49.166 7.33301 -71.499 22s-39.166 33 -50.499 55l290 156c-15.333 32 -37.333 57.833 -66 77.5
s-62.667 29.5 -102 29.5c-26.667 0 -52.5 -6 -77.5 -18s-47.167 -28.667 -66.5 -50c-6.66699 21.333 -18.834 38 -36.501 50s-41.834 18 -72.501 18c-26 0 -44 -1.66699 -54 -5l-14 -55c21.333 2.66699 39.666 4 54.999 4c50.667 0 76 -20.333 76 -61v-36h-2
c-8 9.33301 -19.833 17.166 -35.5 23.499s-31.834 9.5 -48.501 9.5c-17.333 0 -34 -3.66699 -50 -11s-30.167 -17.5 -42.5 -30.5s-22 -28.167 -29 -45.5s-10.5 -35.333 -10.5 -54zM89.0029 128.002c0 18.667 7 36.667 21 54s33.333 26 58 26s44 -8.66699 58 -26
s21 -35.333 21 -54s-7 -36.667 -21 -54s-33.333 -26 -58 -26s-44 8.66699 -58 26s-21 35.333 -21 54z" />
    <glyph glyph-name="ccedilla" unicode="&#xe7;" horiz-adv-x="370" 
d="M336 85c-40 -24.667 -77.998 -37.001 -113.998 -37.001c-38.667 0 -71 13.667 -97 41s-39 60.333 -39 99s13 71.667 39 99s58.333 41 97 41c20 0 39.667 -3 59 -9s37.666 -14.333 54.999 -25l12 59c-21.333 13.333 -42.5 22.5 -63.5 27.5s-41.833 7.5 -62.5 7.5
c-28 0 -54.333 -5.5 -79 -16.5s-46 -25.833 -64 -44.5s-32 -40.167 -42 -64.5s-15 -49.166 -15 -74.499s5 -50 15 -74s24.167 -45.5 42.5 -64.5s39.666 -34 63.999 -45s50.5 -16.5 78.5 -16.5c40 0 82 12 126 36zM176.002 -38.001c5.33301 -8 9.5 -17.999 12.5 -29.999
s4.5 -23 4.5 -33c0 -14.667 -2.83301 -27.334 -8.5 -38.001s-12.167 -20 -19.5 -28l45 -26c12 10 23.5 25 34.5 45s16.5 38.333 16.5 55c0 12 -1.33301 23.167 -4 33.5s-5.66699 17.5 -9 21.5h-72z" />
    <glyph glyph-name="egrave" unicode="&#xe8;" horiz-adv-x="407" 
d="M80 561l129 -113l51 32l-123 116zM401 281c-16 32 -38.333 57.832 -67 77.499s-62.667 29.5 -102 29.5c-28 0 -54.333 -5.5 -79 -16.5s-46 -25.833 -64 -44.5s-32 -40.167 -42 -64.5s-15 -49.166 -15 -74.499s5 -50 15 -74s24.167 -45.5 42.5 -64.5
s39.666 -34 63.999 -45s50.5 -16.5 78.5 -16.5c40 0 82 12 126 36l-12 61c-40 -24.667 -78 -37 -114 -37c-25.333 0 -49.166 7.33301 -71.499 22s-38.833 33 -49.5 55zM94 178.999c-1.33301 4.66699 -2 11.667 -2 21c0 18.667 4 36 12 52s18.833 30 32.5 42
s28.667 21.333 45 28s32.5 10 48.5 10c34 0 61 -11 81 -33z" />
    <glyph glyph-name="eacute" unicode="&#xe9;" horiz-adv-x="407" 
d="M281 596l-133 -109l42 -39l138 109zM401 281c-16 32 -38.333 57.832 -67 77.499s-62.667 29.5 -102 29.5c-28 0 -54.333 -5.5 -79 -16.5s-46 -25.833 -64 -44.5s-32 -40.167 -42 -64.5s-15 -49.166 -15 -74.499s5 -50 15 -74s24.167 -45.5 42.5 -64.5
s39.666 -34 63.999 -45s50.5 -16.5 78.5 -16.5c40 0 82 12 126 36l-12 61c-40 -24.667 -78 -37 -114 -37c-25.333 0 -49.166 7.33301 -71.499 22s-38.833 33 -49.5 55zM94 178.999c-1.33301 4.66699 -2 11.667 -2 21c0 18.667 4 36 12 52s18.833 30 32.5 42
s28.667 21.333 45 28s32.5 10 48.5 10c34 0 61 -11 81 -33z" />
    <glyph glyph-name="ecircumflex" unicode="&#xea;" horiz-adv-x="407" 
d="M133 456l72 67l71 -65l36 44l-111 94l-105 -104zM401 281c-16 32 -38.333 57.832 -67 77.499s-62.667 29.5 -102 29.5c-28 0 -54.333 -5.5 -79 -16.5s-46 -25.833 -64 -44.5s-32 -40.167 -42 -64.5s-15 -49.166 -15 -74.499s5 -50 15 -74s24.167 -45.5 42.5 -64.5
s39.666 -34 63.999 -45s50.5 -16.5 78.5 -16.5c40 0 82 12 126 36l-12 61c-40 -24.667 -78 -37 -114 -37c-25.333 0 -49.166 7.33301 -71.499 22s-38.833 33 -49.5 55zM94 178.999c-1.33301 4.66699 -2 11.667 -2 21c0 18.667 4 36 12 52s18.833 30 32.5 42
s28.667 21.333 45 28s32.5 10 48.5 10c34 0 61 -11 81 -33z" />
    <glyph glyph-name="edieresis" unicode="&#xeb;" horiz-adv-x="407" 
d="M76 524l52 -56l52 56l-52 56zM228 524l52 -56l52 56l-52 56zM401 281c-16 32 -38.333 57.832 -67 77.499s-62.667 29.5 -102 29.5c-28 0 -54.333 -5.5 -79 -16.5s-46 -25.833 -64 -44.5s-32 -40.167 -42 -64.5s-15 -49.166 -15 -74.499s5 -50 15 -74
s24.167 -45.5 42.5 -64.5s39.666 -34 63.999 -45s50.5 -16.5 78.5 -16.5c40 0 82 12 126 36l-12 61c-40 -24.667 -78 -37 -114 -37c-25.333 0 -49.166 7.33301 -71.499 22s-38.833 33 -49.5 55zM94 178.999c-1.33301 4.66699 -2 11.667 -2 21c0 18.667 4 36 12 52
s18.833 30 32.5 42s28.667 21.333 45 28s32.5 10 48.5 10c34 0 61 -11 81 -33z" />
    <glyph glyph-name="igrave" unicode="&#xec;" horiz-adv-x="168" 
d="M-40 561l129 -113l51 32l-123 116zM52 -6l64 12v376l-64 -12v-376z" />
    <glyph glyph-name="iacute" unicode="&#xed;" horiz-adv-x="168" 
d="M161 596l-133 -109l42 -39l138 109zM52 -6l64 12v376l-64 -12v-376z" />
    <glyph glyph-name="icircumflex" unicode="&#xee;" horiz-adv-x="168" 
d="M13 456l72 67l71 -65l36 44l-111 94l-105 -104zM52 -6l64 12v376l-64 -12v-376z" />
    <glyph glyph-name="idieresis" unicode="&#xef;" horiz-adv-x="168" 
d="M-44 524l52 -56l52 56l-52 56zM108 524l52 -56l52 56l-52 56zM52 -6l64 12v376l-64 -12v-376z" />
    <glyph glyph-name="eth" unicode="&#xf0;" horiz-adv-x="464" 
d="M96 188c0 38.667 13 71.667 39 99s58.333 41 97 41s71 -13.667 97 -41s39 -60.333 39 -99s-13 -71.667 -39 -99s-58.333 -41 -97 -41s-71 13.667 -97 41s-39 60.333 -39 99zM93 545l115.004 64.999c40 -38.667 73.167 -81 99.5 -127s43.166 -92.333 50.499 -139l-2 -2
c-16.667 16.667 -35.334 28.5 -56.001 35.5s-43.334 10.5 -68.001 10.5c-28 0 -54.333 -5.5 -79 -16.5s-46 -25.833 -64 -44.5s-32 -40.167 -42 -64.5s-15 -49.166 -15 -74.499s5 -50 15 -74s24.167 -45.5 42.5 -64.5s39.666 -34 63.999 -45s50.5 -16.5 78.5 -16.5
c22.667 0 45.667 4.33301 69 13s45 22.5 65 41.5s36 43.5 48 73.5s18 65 18 105c0 87.333 -15 164.833 -45 232.5s-73 129.167 -129 184.5l91 51l-35 31l-91 -51c-12.667 10.667 -27 21.167 -43 31.5s-31.333 18.833 -46 25.5l-68 -17c19.333 -10 38 -20.5 56 -31.5
s35 -23.167 51 -36.5l-115 -65z" />
    <glyph glyph-name="ntilde" unicode="&#xf1;" horiz-adv-x="426" 
d="M304 569c-4 -10 -8.99707 -17.999 -14.9971 -23.999s-13.667 -9 -23 -9c-12 0 -30.667 5.66699 -56 17c-25.333 10.667 -44 16 -56 16c-19.333 0 -35.333 -8 -48 -24s-22.334 -34.333 -29.001 -55l44 -11c2.66699 8.66699 7.16699 16.5 13.5 23.5s14.5 10.5 24.5 10.5
c7.33301 0 21.666 -4.66699 42.999 -14c14 -6 26 -10.667 36 -14s20 -5 30 -5c21.333 0 38.166 8.16699 50.499 24.5s22.5 35.166 30.5 56.499zM56.0029 -5.99902l63.998 12.001v206c0 32.667 9.33301 59.5 28 80.5s43.334 31.5 74.001 31.5
c26.667 0 47.334 -9.5 62.001 -28.5s22 -45.5 22 -79.5v-222l64 12v241c0 43.333 -13 77.666 -39 102.999s-60.667 38 -104 38c-23.333 0 -43.333 -4 -60 -12s-33.667 -21 -51 -39v45l-60 -12v-376z" />
    <glyph glyph-name="ograve" unicode="&#xf2;" horiz-adv-x="464" 
d="M108 561l129 -113l51 32l-123 116zM96 188c0 38.667 13 71.667 39 99s58.333 41 97 41s71 -13.667 97 -41s39 -60.333 39 -99s-13 -71.667 -39 -99s-58.333 -41 -97 -41s-71 13.667 -97 41s-39 60.333 -39 99zM32 188c0 -25.333 5 -50 15 -74s24.167 -45.5 42.5 -64.5
s39.666 -34 63.999 -45s50.5 -16.5 78.5 -16.5s54.333 5.5 79 16.5s46 25.833 64 44.5s32 40.167 42 64.5s15 49.166 15 74.499s-5 50 -15 74s-24.167 45.5 -42.5 64.5s-39.666 34 -63.999 45s-50.5 16.5 -78.5 16.5s-54.333 -5.5 -79 -16.5s-46 -25.833 -64 -44.5
s-32 -40.167 -42 -64.5s-15 -49.166 -15 -74.499z" />
    <glyph glyph-name="oacute" unicode="&#xf3;" horiz-adv-x="464" 
d="M309 596l-133 -109l42 -39l138 109zM96 188c0 38.667 13 71.667 39 99s58.333 41 97 41s71 -13.667 97 -41s39 -60.333 39 -99s-13 -71.667 -39 -99s-58.333 -41 -97 -41s-71 13.667 -97 41s-39 60.333 -39 99zM32 188c0 -25.333 5 -50 15 -74s24.167 -45.5 42.5 -64.5
s39.666 -34 63.999 -45s50.5 -16.5 78.5 -16.5s54.333 5.5 79 16.5s46 25.833 64 44.5s32 40.167 42 64.5s15 49.166 15 74.499s-5 50 -15 74s-24.167 45.5 -42.5 64.5s-39.666 34 -63.999 45s-50.5 16.5 -78.5 16.5s-54.333 -5.5 -79 -16.5s-46 -25.833 -64 -44.5
s-32 -40.167 -42 -64.5s-15 -49.166 -15 -74.499z" />
    <glyph glyph-name="ocircumflex" unicode="&#xf4;" horiz-adv-x="464" 
d="M161 456l72 67l71 -65l36 44l-111 94l-105 -104zM96 188c0 38.667 13 71.667 39 99s58.333 41 97 41s71 -13.667 97 -41s39 -60.333 39 -99s-13 -71.667 -39 -99s-58.333 -41 -97 -41s-71 13.667 -97 41s-39 60.333 -39 99zM32 188c0 -25.333 5 -50 15 -74
s24.167 -45.5 42.5 -64.5s39.666 -34 63.999 -45s50.5 -16.5 78.5 -16.5s54.333 5.5 79 16.5s46 25.833 64 44.5s32 40.167 42 64.5s15 49.166 15 74.499s-5 50 -15 74s-24.167 45.5 -42.5 64.5s-39.666 34 -63.999 45s-50.5 16.5 -78.5 16.5s-54.333 -5.5 -79 -16.5
s-46 -25.833 -64 -44.5s-32 -40.167 -42 -64.5s-15 -49.166 -15 -74.499z" />
    <glyph glyph-name="otilde" unicode="&#xf5;" horiz-adv-x="464" 
d="M323 569c-4 -10 -8.99707 -17.999 -14.9971 -23.999s-13.667 -9 -23 -9c-12 0 -30.667 5.66699 -56 17c-25.333 10.667 -44 16 -56 16c-19.333 0 -35.333 -8 -48 -24s-22.334 -34.333 -29.001 -55l44 -11c2.66699 8.66699 7.16699 16.5 13.5 23.5s14.5 10.5 24.5 10.5
c7.33301 0 21.666 -4.66699 42.999 -14c14 -6 26 -10.667 36 -14s20 -5 30 -5c21.333 0 38.166 8.16699 50.499 24.5s22.5 35.166 30.5 56.499zM96.0029 188.001c0 38.667 13 71.667 39 99s58.333 41 97 41s71 -13.667 97 -41s39 -60.333 39 -99s-13 -71.667 -39 -99
s-58.333 -41 -97 -41s-71 13.667 -97 41s-39 60.333 -39 99zM32.0029 188.001c0 -25.333 5 -50 15 -74s24.167 -45.5 42.5 -64.5s39.666 -34 63.999 -45s50.5 -16.5 78.5 -16.5s54.333 5.5 79 16.5s46 25.833 64 44.5s32 40.167 42 64.5s15 49.166 15 74.499s-5 50 -15 74
s-24.167 45.5 -42.5 64.5s-39.666 34 -63.999 45s-50.5 16.5 -78.5 16.5s-54.333 -5.5 -79 -16.5s-46 -25.833 -64 -44.5s-32 -40.167 -42 -64.5s-15 -49.166 -15 -74.499z" />
    <glyph glyph-name="odieresis" unicode="&#xf6;" horiz-adv-x="464" 
d="M104 524l52 -56l52 56l-52 56zM256 524l52 -56l52 56l-52 56zM96 188c0 38.667 13 71.667 39 99s58.333 41 97 41s71 -13.667 97 -41s39 -60.333 39 -99s-13 -71.667 -39 -99s-58.333 -41 -97 -41s-71 13.667 -97 41s-39 60.333 -39 99zM32 188c0 -25.333 5 -50 15 -74
s24.167 -45.5 42.5 -64.5s39.666 -34 63.999 -45s50.5 -16.5 78.5 -16.5s54.333 5.5 79 16.5s46 25.833 64 44.5s32 40.167 42 64.5s15 49.166 15 74.499s-5 50 -15 74s-24.167 45.5 -42.5 64.5s-39.666 34 -63.999 45s-50.5 16.5 -78.5 16.5s-54.333 -5.5 -79 -16.5
s-46 -25.833 -64 -44.5s-32 -40.167 -42 -64.5s-15 -49.166 -15 -74.499z" />
    <glyph glyph-name="divide" unicode="&#xf7;" horiz-adv-x="600" 
d="M47 228h506v50h-506v-50zM245 459c0 -15.333 5.33301 -28.333 16 -39s23.667 -16 39 -16s28.333 5.33301 39 16s16 23.667 16 39s-5.33301 28.333 -16 39s-23.667 16 -39 16s-28.333 -5.33301 -39 -16s-16 -23.667 -16 -39zM245 47c0 -15.333 5.33301 -28.333 16 -39
s23.667 -16 39 -16s28.333 5.33301 39 16s16 23.667 16 39s-5.33301 28.333 -16 39s-23.667 16 -39 16s-28.333 -5.33301 -39 -16s-16 -23.667 -16 -39z" />
    <glyph glyph-name="oslash" unicode="&#xf8;" horiz-adv-x="464" 
d="M114 119c-12 21.333 -18 44.333 -18 69c0 38.667 13 71.667 39 99s58.333 41 97 41c36 0 66.667 -12 92 -36zM30 -6l63.002 50.999c17.333 -17.333 38 -31.166 62 -41.499s49.667 -15.5 77 -15.5c28 0 54.333 5.5 79 16.5s46 25.833 64 44.5s32 40.167 42 64.5
s15 49.166 15 74.499c0 40 -11 76.333 -33 109l63 51l-28 34l-63 -52c-18.667 18.667 -39.834 33 -63.501 43s-48.834 15 -75.501 15c-28 0 -54.333 -5.5 -79 -16.5s-46 -25.833 -64 -44.5s-32 -40.167 -42 -64.5s-15 -49.166 -15 -74.499c0 -38 11 -74.333 33 -109l-63 -51
zM350.002 256.999c12 -20 18 -43 18 -69c0 -38.667 -13 -71.667 -39 -99s-58.333 -41 -97 -41c-36 0 -66.667 12 -92 36z" />
    <glyph glyph-name="ugrave" unicode="&#xf9;" horiz-adv-x="407" 
d="M80 561l129 -113l51 32l-123 116zM56 119c0 -22 3.99902 -41.333 11.999 -58s18.333 -30.5 31 -41.5s26.667 -19 42 -24s30.333 -7.5 45 -7.5c40 0 75 17.667 105 53v-47l60 12v376l-64 -12v-217c0 -27.333 -8.5 -51 -25.5 -71s-40.167 -30 -69.5 -30
c-21.333 0 -38.666 7.83301 -51.999 23.5s-20 34.5 -20 56.5v250l-64 -12v-251z" />
    <glyph glyph-name="uacute" unicode="&#xfa;" horiz-adv-x="407" 
d="M281 596l-133 -109l42 -39l138 109zM56 119c0 -22 3.99902 -41.333 11.999 -58s18.333 -30.5 31 -41.5s26.667 -19 42 -24s30.333 -7.5 45 -7.5c40 0 75 17.667 105 53v-47l60 12v376l-64 -12v-217c0 -27.333 -8.5 -51 -25.5 -71s-40.167 -30 -69.5 -30
c-21.333 0 -38.666 7.83301 -51.999 23.5s-20 34.5 -20 56.5v250l-64 -12v-251z" />
    <glyph glyph-name="ucircumflex" unicode="&#xfb;" horiz-adv-x="407" 
d="M133 456l72 67l71 -65l36 44l-111 94l-105 -104zM56 119c0 -22 3.99902 -41.333 11.999 -58s18.333 -30.5 31 -41.5s26.667 -19 42 -24s30.333 -7.5 45 -7.5c40 0 75 17.667 105 53v-47l60 12v376l-64 -12v-217c0 -27.333 -8.5 -51 -25.5 -71s-40.167 -30 -69.5 -30
c-21.333 0 -38.666 7.83301 -51.999 23.5s-20 34.5 -20 56.5v250l-64 -12v-251z" />
    <glyph glyph-name="udieresis" unicode="&#xfc;" horiz-adv-x="407" 
d="M76 524l52 -56l52 56l-52 56zM228 524l52 -56l52 56l-52 56zM56 119c0 -22 3.99902 -41.333 11.999 -58s18.333 -30.5 31 -41.5s26.667 -19 42 -24s30.333 -7.5 45 -7.5c40 0 75 17.667 105 53v-47l60 12v376l-64 -12v-217c0 -27.333 -8.5 -51 -25.5 -71
s-40.167 -30 -69.5 -30c-21.333 0 -38.666 7.83301 -51.999 23.5s-20 34.5 -20 56.5v250l-64 -12v-251z" />
    <glyph glyph-name="yacute" unicode="&#xfd;" horiz-adv-x="352" 
d="M253 596l-133 -109l42 -39l138 109zM144 86l-115 -226l68 -12l265 522l-69 12l-114 -226l-120 226l-69 -12z" />
    <glyph glyph-name="thorn" unicode="&#xfe;" horiz-adv-x="464" 
d="M52 -152l64 12.0029v193c39.333 -43.333 83 -65 131 -65c24.667 0 48.334 5.5 71.001 16.5s42.5 26 59.5 45s30.333 40.5 40 64.5s14.5 48.667 14.5 74c0 27.333 -5 53.166 -15 77.499s-23.833 45.666 -41.5 63.999s-37.834 32.666 -60.501 42.999
s-46.334 15.5 -71.001 15.5c-25.333 0 -48.666 -6 -69.999 -18s-40 -28.333 -56 -49h-2v411l-64 -12v-872zM120 188.003c0 38.667 11.667 71.667 35 99s53 41 89 41c33.333 0 62.333 -13.833 87 -41.5s37 -60.5 37 -98.5s-12.167 -70.833 -36.5 -98.5
s-52.5 -41.5 -84.5 -41.5c-35.333 0 -65.333 13.333 -90 40s-37 60 -37 100z" />
    <glyph glyph-name="ydieresis" unicode="&#xff;" horiz-adv-x="352" 
d="M48 524l52 -56l52 56l-52 56zM200 524l52 -56l52 56l-52 56zM144 86l-115 -226l68 -12l265 522l-69 12l-114 -226l-120 226l-69 -12z" />
    <glyph glyph-name="OE" unicode="&#x152;" horiz-adv-x="1092" 
d="M13 360c0 -48.667 9.16699 -95.6631 27.5 -140.996s44.5 -85.833 78.5 -121.5s74.833 -63.834 122.5 -84.501s99.5 -31 155.5 -31c32 0 64 4.16699 96 12.5s61.833 20.166 89.5 35.499s51.834 33.5 72.501 54.5s36.667 43.833 48 68.5h2v-153h351l23 64h-302v268h237v64
h-237v260h267l-9 64h-330v-150h-2c-16 29.333 -35.833 54.666 -59.5 75.999s-49.334 38.833 -77.001 52.5s-56 23.667 -85 30s-57.167 9.5 -84.5 9.5c-56 0 -107.833 -10.333 -155.5 -31s-88.5 -48.834 -122.5 -84.501s-60.167 -76.167 -78.5 -121.5
s-27.5 -92.333 -27.5 -141zM89 360.004c0 42 7.66699 81.833 23 119.5s37 70.834 65 99.501s60.833 51 98.5 67s78.167 24 121.5 24s83.833 -8 121.5 -24s70.5 -38.333 98.5 -67s49.667 -61.834 65 -99.501s23 -77.5 23 -119.5s-7.66699 -81.833 -23 -119.5
s-37 -70.834 -65 -99.501s-60.833 -51 -98.5 -67s-78.167 -24 -121.5 -24s-83.833 8 -121.5 24s-70.5 38.333 -98.5 67s-49.667 61.834 -65 99.501s-23 77.5 -23 119.5z" />
    <glyph glyph-name="oe" unicode="&#x153;" horiz-adv-x="741" 
d="M434 179c-1.33301 4.66699 -2 11.667 -2 21c0 18.667 4 36 12 52s18.833 30 32.5 42s28.667 21.333 45 28s32.5 10 48.5 10c34 0 61 -11 81 -33zM32 188c0 -25.333 5.00098 -50.001 15.001 -74.001s24.167 -45.5 42.5 -64.5s39.666 -34 63.999 -45s50.5 -16.5 78.5 -16.5
c32 0 63 7.66699 93 23s55.667 39.666 77 72.999c18 -29.333 41.333 -52.666 70 -69.999s62 -26 100 -26c40 0 82 12 126 36l-12 61c-40 -24.667 -78 -37 -114 -37c-25.333 0 -49.166 7.33301 -71.499 22s-38.833 33 -49.5 55l290 156c-16 32 -38.333 57.833 -67 77.5
s-62.667 29.5 -102 29.5c-34.667 0 -67.334 -8.66699 -98.001 -26s-54.667 -41 -72 -71c-18 28.667 -40.833 52 -68.5 70s-61.5 27 -101.5 27c-28 0 -54.333 -5.5 -79 -16.5s-46 -25.833 -64 -44.5s-32 -40.167 -42 -64.5s-15 -49.166 -15 -74.499zM96.001 187.999
c0 38.667 13 71.667 39 99s58.333 41 97 41s71 -13.667 97 -41s39 -60.333 39 -99s-13 -71.667 -39 -99s-58.333 -41 -97 -41s-71 13.667 -97 41s-39 60.333 -39 99z" />
    <glyph glyph-name="Scaron" unicode="&#x160;" horiz-adv-x="444" 
d="M114 858l109 -95l107 104l-37 36l-71 -72l-74 72zM397 669c-26.667 24.667 -52.167 42.334 -76.5 53.001s-50.5 16 -78.5 16c-26.667 0 -52 -4.83301 -76 -14.5s-45.333 -23.5 -64 -41.5s-33.167 -39.5 -43.5 -64.5s-15.5 -52.167 -15.5 -81.5
c0 -42 11.833 -80.167 35.5 -114.5s64.834 -64.166 123.501 -89.499c53.333 -22.667 89.666 -45 108.999 -67s29 -48.333 29 -79c0 -37.333 -12.5 -69.333 -37.5 -96s-55.5 -40 -91.5 -40c-26.667 0 -51.834 7.83301 -75.501 23.5s-46.5 38.5 -68.5 68.5l-35 -59
c24.667 -34.667 51.167 -60.167 79.5 -76.5s59.833 -24.5 94.5 -24.5c32 0 60.833 5.83301 86.5 17.5s47.334 27.667 65.001 48s31.167 42.666 40.5 66.999s14 48.833 14 73.5c0 45.333 -13.5 84.666 -40.5 117.999s-65.5 59.666 -115.5 78.999
c-52 20.667 -88.5 44.334 -109.5 71.001s-31.5 55.667 -31.5 87c0 33.333 11.167 62.833 33.5 88.5s50.833 38.5 85.5 38.5c24.667 0 46.667 -4.66699 66 -14s39 -25.333 59 -48z" />
    <glyph glyph-name="scaron" unicode="&#x161;" horiz-adv-x="296" 
d="M40 551l109 -95l107 104l-37 36l-71 -72l-74 72zM40 41c11.333 -14 27.168 -26.334 47.501 -37.001s38.833 -16 55.5 -16c13.333 0 27 3 41 9s26.667 14 38 24c25.333 24 38 53 38 87c0 26.667 -8 49.834 -24 69.501s-40.667 34.834 -74 45.501
c-24.667 8 -41.834 16.667 -51.501 26s-14.5 20.333 -14.5 33c0 13.333 4.83301 25 14.5 35s20.834 15 33.501 15c13.333 0 24.333 -3.33301 33 -10s19.667 -18.667 33 -36l39 42c-21.333 24 -39.5 40 -54.5 48s-32.167 12 -51.5 12c-12.667 0 -25.5 -3 -38.5 -9
s-24.5 -14 -34.5 -24c-22.667 -23.333 -34 -49.666 -34 -78.999c0 -25.333 6.66699 -45.833 20 -61.5s36.333 -29.834 69 -42.501c28.667 -10.667 47.667 -20.834 57 -30.501s14 -23.167 14 -40.5c0 -14.667 -5 -27.167 -15 -37.5s-22.667 -15.5 -38 -15.5
c-10.667 0 -21.834 3.16699 -33.501 9.5s-22.167 14.5 -31.5 24.5z" />
    <glyph glyph-name="Ydieresis" unicode="&#x178;" horiz-adv-x="519" 
d="M132 831l52 -56l52 56l-52 56zM284 831l52 -56l52 56l-52 56zM219 274l-139 -268l72 -12l371 720l-73 12l-194 -374l-188 374l-72 -12z" />
    <glyph glyph-name="florin" unicode="&#x192;" 
d="M183 309l-41.998 -283.002c-7.33301 -52 -19 -88.667 -35 -110s-36.667 -32 -62 -32c-11.333 0 -23 1.33301 -35 4l-14 -61c17.333 -4.66699 34.333 -7 51 -7c44 0 79 14.833 105 44.5s43.667 75.834 53 138.501l47 306h99l11 60h-101l17 99
c6.66699 36.667 19.5 64.834 38.5 84.501s42.5 29.5 70.5 29.5c8 0 14.167 -0.5 18.5 -1.5s9.16602 -2.5 14.499 -4.5l15 59c-7.33301 4 -15.833 6.83301 -25.5 8.5s-19.5 2.5 -29.5 2.5c-40.667 0 -76.334 -15.333 -107.001 -46s-51 -72.667 -61 -126l-19 -105h-92l-12 -60
h95z" />
    <glyph glyph-name="circumflex" unicode="&#x2c6;" horiz-adv-x="168" 
d="M13 456l72 67l71 -65l36 44l-111 94l-105 -104z" />
    <glyph glyph-name="tilde" unicode="&#x2dc;" horiz-adv-x="168" 
d="M175 569c-4 -10 -8.99707 -17.999 -14.9971 -23.999s-13.667 -9 -23 -9c-12 0 -30.667 5.66699 -56 17c-25.333 10.667 -44 16 -56 16c-19.333 0 -35.333 -8 -48 -24s-22.334 -34.333 -29.001 -55l44 -11c2.66699 8.66699 7.16699 16.5 13.5 23.5s14.5 10.5 24.5 10.5
c7.33301 0 21.666 -4.66699 42.999 -14c14 -6 26 -10.667 36 -14s20 -5 30 -5c21.333 0 38.166 8.16699 50.499 24.5s22.5 35.166 30.5 56.499z" />
    <glyph glyph-name="endash" unicode="&#x2013;" horiz-adv-x="500" 
d="M0 168h500v56h-500v-56z" />
    <glyph glyph-name="emdash" unicode="&#x2014;" horiz-adv-x="1000" 
d="M0 168h1000v56h-1000v-56z" />
    <glyph glyph-name="quoteleft" unicode="&#x2018;" horiz-adv-x="240" 
d="M35 464l75 8l95 248h-64z" />
    <glyph glyph-name="quoteright" unicode="&#x2019;" horiz-adv-x="240" 
d="M130 720l-95 -248h64l106 256z" />
    <glyph glyph-name="quotesinglbase" unicode="&#x201a;" horiz-adv-x="240" 
d="M130 174l-95 -248h64l106 256z" />
    <glyph glyph-name="quotedblleft" unicode="&#x201c;" horiz-adv-x="296" 
d="M-7 464l75 8l95 248h-64zM133 464l75 8l95 248h-64z" />
    <glyph glyph-name="quotedblright" unicode="&#x201d;" horiz-adv-x="296" 
d="M133 472h64l106 256l-75 -8zM-7 472h64l106 256l-75 -8z" />
    <glyph glyph-name="quotedblbase" unicode="&#x201e;" horiz-adv-x="296" 
d="M133 -74h64l106 256l-75 -8zM-7 -74h64l106 256l-75 -8z" />
    <glyph glyph-name="dagger" unicode="&#x2020;" 
d="M208 420h-150l-12 -56h162v-476l64 12v464h150l12 56h-162v230l-64 -12v-218z" />
    <glyph glyph-name="daggerdbl" unicode="&#x2021;" 
d="M46 106h162v-218l64 12v206h150l12 56h-162v238h150l12 56h-162v194l-64 -12v-182h-150l-12 -56h162v-238h-150z" />
    <glyph glyph-name="bullet" unicode="&#x2022;" horiz-adv-x="500" 
d="M70 360c0 -24.667 4.66699 -47.834 14 -69.501s22.333 -40.834 39 -57.501s35.834 -29.667 57.501 -39s44.834 -14 69.501 -14s47.834 4.66699 69.501 14s40.834 22.333 57.501 39s29.667 35.834 39 57.501s14 44.834 14 69.501s-4.66699 47.834 -14 69.501
s-22.333 40.834 -39 57.501s-35.834 29.667 -57.501 39s-44.834 14 -69.501 14s-47.834 -4.66699 -69.501 -14s-40.834 -22.333 -57.501 -39s-29.667 -35.834 -39 -57.501s-14 -44.834 -14 -69.501z" />
    <glyph glyph-name="ellipsis" unicode="&#x2026;" horiz-adv-x="1000" 
d="M109 50l58 -58l58 58l-58 58zM442 50l58 -58l58 58l-58 58zM775 50l58 -58l58 58l-58 58z" />
    <glyph glyph-name="perthousand" unicode="&#x2030;" horiz-adv-x="944" 
d="M725 159c0 41.333 6.5 71.833 19.5 91.5s30.5 29.5 52.5 29.5s39.5 -9.83301 52.5 -29.5s19.5 -50.167 19.5 -91.5s-6.5 -71.833 -19.5 -91.5s-30.5 -29.5 -52.5 -29.5s-39.5 9.83301 -52.5 29.5s-19.5 50.167 -19.5 91.5zM155 -8l371 654h-50l-371 -654h50zM75 479
c0 41.333 6.5 71.833 19.5 91.5s30.5 29.5 52.5 29.5s39.5 -9.83301 52.5 -29.5s19.5 -50.167 19.5 -91.5s-6.5 -71.833 -19.5 -91.5s-30.5 -29.5 -52.5 -29.5s-39.5 9.83301 -52.5 29.5s-19.5 50.167 -19.5 91.5zM669 159c0 -56.667 12 -98.667 36 -126s54.667 -41 92 -41
s68 13.667 92 41s36 69.333 36 126s-12 98.667 -36 126s-54.667 41 -92 41s-68 -13.667 -92 -41s-36 -69.333 -36 -126zM19 479c0 -56.667 12 -98.667 36 -126s54.667 -41 92 -41s68 13.667 92 41s36 69.333 36 126s-12 98.667 -36 126s-54.667 41 -92 41
s-68 -13.667 -92 -41s-36 -69.333 -36 -126zM411 159c0 41.333 6.5 71.833 19.5 91.5s30.5 29.5 52.5 29.5s39.5 -9.83301 52.5 -29.5s19.5 -50.167 19.5 -91.5s-6.5 -71.833 -19.5 -91.5s-30.5 -29.5 -52.5 -29.5s-39.5 9.83301 -52.5 29.5s-19.5 50.167 -19.5 91.5z
M355 159c0 -56.667 12 -98.667 36 -126s54.667 -41 92 -41s68 13.667 92 41s36 69.333 36 126s-12 98.667 -36 126s-54.667 41 -92 41s-68 -13.667 -92 -41s-36 -69.333 -36 -126z" />
    <glyph glyph-name="guilsinglleft" unicode="&#x2039;" horiz-adv-x="168" 
d="M-12 196l124 -122l52 24l-100 98l100 98l-52 24z" />
    <glyph glyph-name="guilsinglright" unicode="&#x203a;" horiz-adv-x="168" 
d="M104 196l-100 -98l52 -24l124 122l-124 122l-52 -24z" />
    <glyph glyph-name="trademark" unicode="&#x2122;" horiz-adv-x="990" 
d="M177 308h50v368h135v44h-320v-44h135v-368zM818 308h50v412h-86l-128 -332l-132 332h-86v-412h50v368h2l149 -368h30l149 368h2v-368z" />
    </font>
</defs>
</svg>
